<svg width="80" height="80" viewBox="0 0 80 80" fill="none" xmlns="http://www.w3.org/2000/svg">
<g clip-path="url(#clip0)">
<path d="M77.9597 55.1589H67.0609V37.2301C67.0609 36.5828 66.5364 36.0582 65.8891 36.0582C65.2417 36.0582 64.7172 36.5828 64.7172 37.2301V55.1589C62.3172 55.1589 46.9198 55.1589 44.3542 55.1589V50.0807C44.3542 49.4334 43.8297 48.9089 43.1823 48.9089H31.415C31.415 47.4679 31.415 23.3638 31.415 20.9731H44.7242V25.794C44.7242 26.8259 45.5636 27.6653 46.5955 27.6653H49.5367C50.5686 27.6653 51.4081 26.8259 51.4081 25.794V20.9731H64.7173V32.5448C64.7173 33.1921 65.2419 33.7167 65.8892 33.7167C66.5366 33.7167 67.0611 33.1921 67.0611 32.5448V20.6698C67.0611 19.5448 66.1458 18.6293 65.0206 18.6293C59.2684 18.6293 45.7091 18.6293 40.3558 18.6293V2.07025C40.3558 0.945254 39.4405 0.0297852 38.3153 0.0297852H16.7919C15.6667 0.0297852 14.7514 0.945098 14.7514 2.07025V9.479C14.7514 10.1263 15.2761 10.6509 15.9233 10.6509C16.5705 10.6509 17.0952 10.1263 17.0952 9.479V2.37354H24.2116V7.19447C24.2116 8.22635 25.0509 9.06572 26.0828 9.06572H29.0242C30.0561 9.06572 30.8955 8.22635 30.8955 7.19447V2.37354H38.0119V18.6293H30.2433C29.5961 18.6293 29.0714 19.1538 29.0714 19.8012V29.5668H17.0953V14.1643C17.0953 13.517 16.5706 12.9924 15.9234 12.9924C15.2763 12.9924 14.7516 13.517 14.7516 14.1643V29.567H7.85125C6.72609 29.567 5.81078 30.4821 5.81078 31.6073V48.9089H2.04031C0.915312 48.9089 0 49.8242 0 50.9493V78.7978C0 79.4451 0.524687 79.9696 1.17188 79.9696H13.5806C14.2278 79.9696 14.7525 79.4451 14.7525 78.7978C14.7525 78.1504 14.2278 77.6259 13.5806 77.6259H2.34375V51.2526H18.8352V56.0734C18.8352 57.1053 19.6747 57.9448 20.7064 57.9448H23.6477C24.6795 57.9448 25.5189 57.1053 25.5189 56.0734V51.2526H42.0103V77.6259H18.2659C17.6187 77.6259 17.0941 78.1504 17.0941 78.7978C17.0941 79.4451 17.6187 79.9696 18.2659 79.9696H78.828C79.4753 79.9696 79.9998 79.4451 79.9998 78.7978V57.1993C80 56.0743 79.0847 55.1589 77.9597 55.1589ZM28.5516 6.72182H26.5553V2.37369H28.5516V6.72182ZM49.0642 20.9731V25.3213H47.068V20.9731H49.0642ZM17.6147 31.9107H19.6111V36.2588H17.6147V31.9107ZM8.15453 31.9107H15.2709V36.7315C15.2709 37.7634 16.1105 38.6028 17.1422 38.6028H20.0836C21.1155 38.6028 21.9548 37.7634 21.9548 36.7315V31.9107H29.0713V48.9089C24.5414 48.9089 11.9406 48.9089 8.15453 48.9089V31.9107ZM23.1752 55.6009H21.1789V51.2526H23.1752V55.6009ZM62.0034 57.5026V61.8509H60.007V57.5026H62.0034ZM77.6562 77.6259H44.3542V57.5026H57.6633V62.3234C57.6633 63.3553 58.5028 64.1948 59.5347 64.1948H62.4759C63.5078 64.1948 64.3473 63.3553 64.3473 62.3234V57.5026H77.6564V77.6259H77.6562Z" fill="black"/>
</g>
<defs>
<clipPath id="clip0">
<rect width="80" height="80" fill="white"/>
</clipPath>
</defs>
</svg>
