<svg width="28" height="28" viewBox="0 0 28 28" fill="none" xmlns="http://www.w3.org/2000/svg">
<g clip-path="url(#clip0)">
<path d="M9.07812 18.1018H23.8987C24.2657 18.1018 24.5876 17.8591 24.6869 17.5066L27.9684 6.02203C28.0389 5.77444 27.9906 5.50848 27.8353 5.30276C27.6798 5.09769 27.438 4.97656 27.1799 4.97656H7.18436L6.59796 2.33789C6.51465 1.96213 6.1814 1.69531 5.79688 1.69531H0.820312C0.367004 1.69531 0 2.06232 0 2.51562C0 2.96915 0.367004 3.33594 0.820312 3.33594H5.13849L8.1008 16.666C7.22922 17.045 6.61719 17.9125 6.61719 18.9221C6.61719 20.279 7.72119 21.383 9.07812 21.383H23.8987C24.3522 21.383 24.719 21.0162 24.719 20.5627C24.719 20.1094 24.3522 19.7424 23.8987 19.7424H9.07812C8.62631 19.7424 8.25781 19.3748 8.25781 18.9221C8.25781 18.4694 8.62631 18.1018 9.07812 18.1018Z" fill="#B0CB1F"/>
<path d="M8.25781 23.8438C8.25781 25.2009 9.36182 26.3047 10.719 26.3047C12.0759 26.3047 13.1799 25.2009 13.1799 23.8438C13.1799 22.4868 12.0759 21.3828 10.719 21.3828C9.36182 21.3828 8.25781 22.4868 8.25781 23.8438Z" fill="#B0CB1F"/>
<path d="M19.7969 23.8438C19.7969 25.2009 20.9009 26.3047 22.2578 26.3047C23.615 26.3047 24.7188 25.2009 24.7188 23.8438C24.7188 22.4868 23.615 21.3828 22.2578 21.3828C20.9009 21.3828 19.7969 22.4868 19.7969 23.8438Z" fill="#B0CB1F"/>
</g>
<defs>
<clipPath id="clip0">
<rect width="28" height="28" fill="white"/>
</clipPath>
</defs>
</svg>
