<svg width="80" height="80" viewBox="0 0 80 80" fill="none" xmlns="http://www.w3.org/2000/svg">
<g clip-path="url(#clip0)">
<path d="M0.252911 7.3387L5.58827 16.675C5.76824 16.9905 6.06946 17.2188 6.42172 17.3071L11.3993 18.5515L28.4715 35.6237L30.3579 33.7379L13.0185 16.3991C12.8479 16.2279 12.6339 16.1066 12.3996 16.0479L7.61674 14.8479L3.07422 6.89427L6.96875 2.99974L14.9257 7.54665L16.1262 12.3295C16.1844 12.5643 16.3062 12.7789 16.4768 12.9495L33.8162 30.2889L35.702 28.4025L18.6298 11.3303L17.3854 6.35547C17.2971 6.00267 17.0688 5.70089 16.7534 5.52038L7.41647 0.185564C6.89578 -0.110723 6.24065 -0.0229339 5.81597 0.400098L0.481162 5.73546C0.0520943 6.1574 -0.0411812 6.81362 0.252911 7.3387Z" fill="black"/>
<path d="M55.7053 26.2867L26.3624 55.6301L24.4761 53.7437L53.8195 24.4009L55.7053 26.2867Z" fill="black"/>
<path d="M21.227 56.6679C20.9856 56.2663 20.5521 56.021 20.0835 56.021H12.081C11.613 56.021 11.179 56.2663 10.9381 56.6679L6.93662 63.3365C6.68258 63.759 6.68258 64.2874 6.93662 64.7104L10.9381 71.3791C11.179 71.7802 11.613 72.026 12.081 72.026H20.0835C20.5521 72.026 20.9856 71.7802 21.227 71.3791L25.228 64.7104C25.482 64.2874 25.482 63.759 25.228 63.3365L21.227 56.6679ZM19.3291 69.3583H12.836L9.63503 64.0235L12.836 58.6881H19.3291L22.5301 64.0235L19.3291 69.3583Z" fill="black"/>
<path d="M64.0982 32.0132C72.9073 32.0429 80.073 24.9254 80.1026 16.1163C80.107 14.7754 79.9424 13.4399 79.6127 12.1401C79.4349 11.4251 78.7112 10.99 77.9963 11.1678C77.7614 11.2265 77.5474 11.3478 77.3763 11.5184L69.0736 19.8155L62.4862 17.6203L60.2893 11.0345L68.5919 2.7302C69.1126 2.20895 69.112 1.36454 68.5908 0.843839C68.4191 0.672102 68.2029 0.550295 67.9664 0.492135C59.4235 -1.67131 50.745 3.5 48.5815 12.0424C48.2529 13.3384 48.0888 14.6706 48.0932 16.0077C48.0965 17.0579 48.2046 18.1048 48.4175 19.133L19.2074 48.3425C18.1792 48.1301 17.1323 48.0221 16.0827 48.0182C7.24291 48.0182 0.0771484 55.184 0.0771484 64.0238C0.0771484 72.863 7.24291 80.0287 16.0827 80.0287C24.9219 80.0287 32.0877 72.863 32.0877 64.0238C32.0844 62.9736 31.9757 61.9267 31.7634 60.8985L38.7563 53.9056L41.8147 56.9639C42.3359 57.4846 43.1798 57.4846 43.701 56.9639L44.3677 56.2967C44.9526 55.7156 45.8979 55.7156 46.4828 56.2967C47.0672 56.8794 47.0683 57.8253 46.4856 58.4097C46.485 58.4102 46.4839 58.4113 46.4828 58.4124L45.8162 59.0791C45.2955 59.5998 45.2955 60.4442 45.8162 60.9649L61.7268 76.8755C65.9116 81.0987 72.7273 81.1294 76.9505 76.9446C81.1731 72.7598 81.2038 65.9436 77.0191 61.7209C76.9966 61.6979 76.9735 61.6749 76.9505 61.6518L61.0399 45.7417C60.5192 45.2211 59.6747 45.2211 59.154 45.7417L58.4874 46.4084C57.902 46.99 56.9571 46.99 56.3717 46.4084C55.7879 45.8257 55.7863 44.8798 56.3689 44.296C56.37 44.2949 56.3711 44.2943 56.3717 44.2932L57.0389 43.626C57.5596 43.1053 57.5596 42.2609 57.0389 41.7402L53.9805 38.6819L60.9735 31.689C62.0017 31.9013 63.0486 32.0099 64.0982 32.0132ZM69.3386 77.3616C68.3697 77.36 67.4089 77.1849 66.502 76.8442L76.9187 66.427C78.4906 70.6085 76.3755 75.2722 72.194 76.8442C71.2815 77.1871 70.3142 77.3627 69.3386 77.3616ZM54.2285 42.6966C52.7515 44.4584 52.983 47.0844 54.7449 48.5609C56.2932 49.8585 58.55 49.8574 60.0967 48.557L75.0647 63.5382C75.2271 63.7011 75.3791 63.8729 75.5261 64.0473L64.1223 75.4511C63.9473 75.3046 63.7756 75.1526 63.6126 74.9897L48.6331 60.0091C50.1102 58.2473 49.8786 55.6213 48.1168 54.1448C46.5684 52.8466 44.3112 52.8482 42.7644 54.1481L40.6306 52.0143L52.0942 40.5677L54.2285 42.6966ZM59.6144 29.2819L29.3574 59.5328C29.0255 59.8642 28.8922 60.3454 29.0052 60.8003C30.835 67.9863 26.4928 75.2953 19.3062 77.1246C12.1201 78.9544 4.81116 74.6122 2.98131 67.4256C1.15201 60.2395 5.49426 52.9305 12.6809 51.1007C14.8547 50.5476 17.1323 50.5476 19.3062 51.1007C19.761 51.2121 20.2411 51.0788 20.5736 50.749L50.8234 20.4975C51.1548 20.1661 51.2882 19.6849 51.174 19.2306C49.3568 12.1285 53.6409 4.89803 60.743 3.08026C62.0851 2.73733 63.4733 2.60565 64.8559 2.69179L57.8202 9.73025C57.463 10.0869 57.3379 10.6153 57.4976 11.0943L60.1647 19.0973C60.298 19.4951 60.6108 19.8079 61.0091 19.9401L69.0122 22.6078C69.4906 22.7674 70.019 22.6429 70.3762 22.2862L77.4119 15.2505C77.4278 15.5051 77.4361 15.757 77.4361 16.0077C77.4734 23.3364 71.563 29.3077 64.2343 29.3456C63.1013 29.351 61.9721 29.2117 60.8747 28.9308C60.4199 28.8172 59.9387 28.95 59.6073 29.2814H59.6144V29.2819Z" fill="black"/>
<path d="M69.044 67.0819L67.1576 68.9683L53.8203 55.631L55.7061 53.7446L69.044 67.0819Z" fill="black"/>
</g>
<defs>
<clipPath id="clip0">
<rect width="80" height="80" fill="white"/>
</clipPath>
</defs>
</svg>
