<svg width="80" height="80" viewBox="0 0 80 80" fill="none" xmlns="http://www.w3.org/2000/svg">
<path d="M56.5 13.6C54.85 12.55 53.1167 11.6666 51.3167 10.95C50.8167 10.75 50.3 10.5666 49.7833 10.3833L48.6667 13.5H48.6833C50.7833 14.2166 52.8 15.1833 54.7167 16.4C67.6333 24.6166 71.4667 41.8166 63.2667 54.75C59.2833 61.0166 53.1 65.35 45.8667 66.9666C40.9667 68.0666 35.9667 67.8166 31.3167 66.3H31.3C30.8 66.1333 30.2833 65.95 29.7833 65.7666L28.6667 68.8666L28.65 68.9C32.2 70.2833 35.9667 70.9833 39.7667 70.9833C42.0333 70.9833 44.3167 70.7333 46.5833 70.2333C54.7 68.4333 61.6167 63.5666 66.0667 56.5666C75.2667 42.05 70.9833 22.8 56.5 13.6ZM56.5 13.6C54.85 12.55 53.1167 11.6666 51.3167 10.95C50.8167 10.75 50.3 10.5666 49.7833 10.3833L48.6667 13.5H48.6833C50.7833 14.2166 52.8 15.1833 54.7167 16.4C67.6333 24.6166 71.4667 41.8166 63.2667 54.75C59.2833 61.0166 53.1 65.35 45.8667 66.9666C40.9667 68.0666 35.9667 67.8166 31.3167 66.3H31.3C30.8 66.1333 30.2833 65.95 29.7833 65.7666L28.6667 68.8666L28.65 68.9C32.2 70.2833 35.9667 70.9833 39.7667 70.9833C42.0333 70.9833 44.3167 70.7333 46.5833 70.2333C54.7 68.4333 61.6167 63.5666 66.0667 56.5666C75.2667 42.05 70.9833 22.8 56.5 13.6ZM56.5 13.6C54.85 12.55 53.1167 11.6666 51.3167 10.95C50.8167 10.75 50.3 10.5666 49.7833 10.3833L48.6667 13.5H48.6833C50.7833 14.2166 52.8 15.1833 54.7167 16.4C67.6333 24.6166 71.4667 41.8166 63.2667 54.75C59.2833 61.0166 53.1 65.35 45.8667 66.9666C40.9667 68.0666 35.9667 67.8166 31.3167 66.3H31.3C30.8 66.1333 30.2833 65.95 29.7833 65.7666L28.6667 68.8666L28.65 68.9C32.2 70.2833 35.9667 70.9833 39.7667 70.9833C42.0333 70.9833 44.3167 70.7333 46.5833 70.2333C54.7 68.4333 61.6167 63.5666 66.0667 56.5666C75.2667 42.05 70.9833 22.8 56.5 13.6ZM56.5 13.6C54.85 12.55 53.1167 11.6666 51.3167 10.95C50.8167 10.75 50.3 10.5666 49.7833 10.3833L48.6667 13.5H48.6833C50.7833 14.2166 52.8 15.1833 54.7167 16.4C67.6333 24.6166 71.4667 41.8166 63.2667 54.75C59.2833 61.0166 53.1 65.35 45.8667 66.9666C40.9667 68.0666 35.9667 67.8166 31.3167 66.3H31.3C30.8 66.1333 30.2833 65.95 29.7833 65.7666L28.6667 68.8666L28.65 68.9C32.2 70.2833 35.9667 70.9833 39.7667 70.9833C42.0333 70.9833 44.3167 70.7333 46.5833 70.2333C54.7 68.4333 61.6167 63.5666 66.0667 56.5666C75.2667 42.05 70.9833 22.8 56.5 13.6ZM56.5 13.6C54.85 12.55 53.1167 11.6666 51.3167 10.95C50.8167 10.75 50.3 10.5666 49.7833 10.3833L48.6667 13.5H48.6833C50.7833 14.2166 52.8 15.1833 54.7167 16.4C67.6333 24.6166 71.4667 41.8166 63.2667 54.75C59.2833 61.0166 53.1 65.35 45.8667 66.9666C40.9667 68.0666 35.9667 67.8166 31.3167 66.3H31.3C30.8 66.1333 30.2833 65.95 29.7833 65.7666L28.6667 68.8666L28.65 68.9C32.2 70.2833 35.9667 70.9833 39.7667 70.9833C42.0333 70.9833 44.3167 70.7333 46.5833 70.2333C54.7 68.4333 61.6167 63.5666 66.0667 56.5666C75.2667 42.05 70.9833 22.8 56.5 13.6ZM75.4333 31.9166C73.3167 22.4 67.6167 14.2833 59.3833 9.04998C57.4 7.78332 55.3 6.73332 53.1333 5.88332C52.6333 5.68332 52.1167 5.49998 51.6167 5.31665L50.5 8.43332V8.44998C52.9833 9.29998 55.3833 10.4333 57.6167 11.8666C65.0833 16.6166 70.2667 24 72.2 32.65C74.1333 41.3 72.5667 50.1833 67.8167 57.65C61.5 67.5666 50.75 73 39.7667 73C36.3167 73 32.85 72.4666 29.4833 71.3666C28.9667 71.2 28.4667 71.0166 27.95 70.8166L26.8333 73.9166V73.95C31.0333 75.55 35.4167 76.3333 39.7833 76.3333C51.8667 76.3333 63.7 70.35 70.6333 59.4333C75.85 51.2 77.55 41.4166 75.4333 31.9166ZM46.5833 70.2C54.7 68.4 61.6167 63.5333 66.0667 56.5333C75.2667 42.05 70.9667 22.8 56.5 13.6C54.85 12.55 53.1167 11.6666 51.3167 10.95C50.8167 10.75 50.3 10.5666 49.7833 10.3833L48.6667 13.5H48.6833C50.7833 14.2166 52.8 15.1833 54.7167 16.4C67.6333 24.6166 71.4667 41.8166 63.2667 54.75C59.2833 61.0166 53.1 65.35 45.8667 66.9666C40.9667 68.0666 35.9667 67.8166 31.3167 66.3H31.3C30.8 66.1333 30.2833 65.95 29.7833 65.7666L28.6667 68.8666L28.65 68.9C32.2 70.2833 35.9667 70.9833 39.7667 70.9833C42.0333 70.9666 44.3167 70.7166 46.5833 70.2ZM56.5 13.6C54.85 12.55 53.1167 11.6666 51.3167 10.95C50.8167 10.75 50.3 10.5666 49.7833 10.3833L48.6667 13.5H48.6833C50.7833 14.2166 52.8 15.1833 54.7167 16.4C67.6333 24.6166 71.4667 41.8166 63.2667 54.75C59.2833 61.0166 53.1 65.35 45.8667 66.9666C40.9667 68.0666 35.9667 67.8166 31.3167 66.3H31.3C30.8 66.1333 30.2833 65.95 29.7833 65.7666L28.6667 68.8666L28.65 68.9C32.2 70.2833 35.9667 70.9833 39.7667 70.9833C42.0333 70.9833 44.3167 70.7333 46.5833 70.2333C54.7 68.4333 61.6167 63.5666 66.0667 56.5666C75.2667 42.05 70.9833 22.8 56.5 13.6ZM56.5 13.6C54.85 12.55 53.1167 11.6666 51.3167 10.95C50.8167 10.75 50.3 10.5666 49.7833 10.3833L48.6667 13.5H48.6833C50.7833 14.2166 52.8 15.1833 54.7167 16.4C67.6333 24.6166 71.4667 41.8166 63.2667 54.75C59.2833 61.0166 53.1 65.35 45.8667 66.9666C40.9667 68.0666 35.9667 67.8166 31.3167 66.3H31.3C30.8 66.1333 30.2833 65.95 29.7833 65.7666L28.6667 68.8666L28.65 68.9C32.2 70.2833 35.9667 70.9833 39.7667 70.9833C42.0333 70.9833 44.3167 70.7333 46.5833 70.2333C54.7 68.4333 61.6167 63.5666 66.0667 56.5666C75.2667 42.05 70.9833 22.8 56.5 13.6ZM56.5 13.6C54.85 12.55 53.1167 11.6666 51.3167 10.95C50.8167 10.75 50.3 10.5666 49.7833 10.3833L48.6667 13.5H48.6833C50.7833 14.2166 52.8 15.1833 54.7167 16.4C67.6333 24.6166 71.4667 41.8166 63.2667 54.75C59.2833 61.0166 53.1 65.35 45.8667 66.9666C40.9667 68.0666 35.9667 67.8166 31.3167 66.3H31.3C30.8 66.1333 30.2833 65.95 29.7833 65.7666L28.6667 68.8666L28.65 68.9C32.2 70.2833 35.9667 70.9833 39.7667 70.9833C42.0333 70.9833 44.3167 70.7333 46.5833 70.2333C54.7 68.4333 61.6167 63.5666 66.0667 56.5666C75.2667 42.05 70.9833 22.8 56.5 13.6Z" fill="black"/>
<path d="M56.1167 36.2167C55.15 31.8667 52.5333 28.15 48.7833 25.75C48.0167 25.2667 47.2333 24.85 46.4167 24.5C45.9167 24.2833 45.4 24.1 44.9 23.9333L43.7667 27.0667C43.7833 27.0667 43.8 27.0667 43.8 27.0833C44.9 27.4167 45.9667 27.9167 46.9833 28.5667C50 30.4833 52.0833 33.45 52.8667 36.95C53.65 40.4333 53.0167 44.0167 51.1 47.0333C49.1833 50.05 46.2167 52.1333 42.7167 52.9167C40.5333 53.4 38.3 53.3333 36.2 52.75C36.1833 52.75 36.1667 52.75 36.1667 52.7333C35.6667 52.5833 35.1667 52.4167 34.6667 52.2L33.55 55.3L33.5333 55.3333C35.5167 56.15 37.6333 56.55 39.7833 56.55C41 56.55 42.2333 56.4167 43.45 56.15C47.8 55.1833 51.5167 52.5667 53.9167 48.8167C56.3 45.0333 57.0833 40.5667 56.1167 36.2167Z" fill="black"/>
<path d="M50.9833 37.3666C50.3167 34.3832 48.5333 31.8332 45.95 30.1999C45.5167 29.9166 45.0667 29.6832 44.6167 29.4666C44.1667 29.2499 43.7 29.0832 43.2167 28.9332C43.1667 28.9166 43.1333 28.8999 43.0833 28.8999L41.95 32.0332C42.0667 32.0666 42.1833 32.0999 42.3 32.1332C42.9333 32.3332 43.5667 32.6332 44.15 32.9999C45.9833 34.1666 47.2333 35.9666 47.7167 38.0832C48.1833 40.1999 47.8 42.3666 46.65 44.1999C45.4833 46.0332 43.6833 47.2999 41.5667 47.7666C40.25 48.0666 38.9 48.0166 37.65 47.6666C37.25 47.5499 36.85 47.4166 36.4667 47.2332L35.35 50.3332L35.3333 50.3666C35.8 50.5666 36.2667 50.7332 36.7333 50.8666C36.7833 50.8832 36.8167 50.8999 36.8667 50.8999C37.8167 51.1499 38.8 51.2832 39.7833 51.2832C40.6167 51.2832 41.45 51.1999 42.2833 50.9999C45.2667 50.3332 47.8167 48.5499 49.45 45.9832C51.1 43.3999 51.6333 40.3332 50.9833 37.3666Z" fill="black"/>
<path d="M40.2167 8.83322C37.95 8.83322 35.6667 9.08322 33.4 9.58322C25.2833 11.3832 18.3667 16.2499 13.9167 23.2499C4.69999 37.7332 8.99999 56.9999 23.4667 66.1999C25.1167 67.2499 26.85 68.1332 28.65 68.8499C29.15 69.0499 29.6667 69.2332 30.1833 69.4165L31.3 66.2999H31.2833C29.2 65.5832 27.1667 64.6166 25.25 63.3999C12.3333 55.1832 8.49999 37.9665 16.7 25.0499C20.6833 18.7832 26.8667 14.4499 34.1 12.8332C39 11.7332 44 11.9832 48.65 13.4999H48.6667C49.1833 13.6666 49.6833 13.8499 50.1833 14.0332L51.3 10.9332L51.3167 10.8999C47.7667 9.53322 44.0167 8.83322 40.2167 8.83322ZM40.2167 3.46655C28.1333 3.46655 16.3 9.44988 9.36666 20.3666C4.13333 28.5999 2.43333 38.3666 4.54999 47.8832C6.66666 57.3999 12.3667 65.5166 20.6 70.7499C22.5833 72.0165 24.6833 73.0666 26.85 73.9165C27.35 74.1166 27.8667 74.2999 28.3833 74.4832L29.5167 71.3666V71.3499C27.0333 70.4999 24.6333 69.3666 22.4 67.9332C14.8833 63.1832 9.69999 55.7999 7.78333 47.1666C5.86666 38.5332 7.41666 29.6332 12.1667 22.1666C18.4833 12.2332 29.2333 6.79989 40.2167 6.79989C43.6667 6.79989 47.1333 7.33322 50.5 8.44989C51.0167 8.61655 51.5167 8.79989 52.0333 8.99989L53.15 5.89989L53.1667 5.86655C48.95 4.24989 44.5667 3.46655 40.2167 3.46655ZM40.2167 8.83322C37.95 8.83322 35.6667 9.08322 33.4 9.58322C25.2833 11.3832 18.3667 16.2499 13.9167 23.2499C4.69999 37.7332 8.99999 56.9999 23.4667 66.1999C25.1167 67.2499 26.85 68.1332 28.65 68.8499C29.15 69.0499 29.6667 69.2332 30.1833 69.4165L31.3 66.2999H31.2833C29.2 65.5832 27.1667 64.6166 25.25 63.3999C12.3333 55.1832 8.49999 37.9665 16.7 25.0499C20.6833 18.7832 26.8667 14.4499 34.1 12.8332C39 11.7332 44 11.9832 48.65 13.4999H48.6667C49.1833 13.6666 49.6833 13.8499 50.1833 14.0332L51.3 10.9332L51.3167 10.8999C47.7667 9.53322 44.0167 8.83322 40.2167 8.83322ZM40.2167 8.83322C37.95 8.83322 35.6667 9.08322 33.4 9.58322C25.2833 11.3832 18.3667 16.2499 13.9167 23.2499C4.69999 37.7332 8.99999 56.9999 23.4667 66.1999C25.1167 67.2499 26.85 68.1332 28.65 68.8499C29.15 69.0499 29.6667 69.2332 30.1833 69.4165L31.3 66.2999H31.2833C29.2 65.5832 27.1667 64.6166 25.25 63.3999C12.3333 55.1832 8.49999 37.9665 16.7 25.0499C20.6833 18.7832 26.8667 14.4499 34.1 12.8332C39 11.7332 44 11.9832 48.65 13.4999H48.6667C49.1833 13.6666 49.6833 13.8499 50.1833 14.0332L51.3 10.9332L51.3167 10.8999C47.7667 9.53322 44.0167 8.83322 40.2167 8.83322Z" fill="black"/>
<path d="M40.1833 23.25C38.9667 23.25 37.7333 23.3833 36.5166 23.65C32.1666 24.6167 28.45 27.2333 26.05 30.9833C23.65 34.75 22.8666 39.2167 23.85 43.5667C24.8166 47.9167 27.4333 51.6333 31.1833 54.0333C31.95 54.5167 32.7333 54.9333 33.55 55.2833C34.05 55.5 34.5666 55.6833 35.0666 55.85L36.2 52.7167C36.1833 52.7167 36.1666 52.7167 36.1666 52.7C35.0666 52.35 34 51.8667 32.9666 51.2167C29.95 49.3 27.8666 46.3333 27.0833 42.8333C26.3 39.35 26.9333 35.7667 28.85 32.75C30.7666 29.7333 33.7333 27.65 37.2333 26.8667C39.4166 26.3833 41.65 26.45 43.75 27.0333C43.7667 27.0333 43.7833 27.0333 43.7833 27.05C44.2833 27.2 44.7833 27.3667 45.2833 27.5667L46.4 24.4667L46.4167 24.4333C44.4333 23.6667 42.3333 23.25 40.1833 23.25Z" fill="black"/>
<path d="M43.2333 28.9333C43.1833 28.9166 43.15 28.9166 43.1 28.8999C42.15 28.6499 41.1667 28.5166 40.1833 28.5166C39.35 28.5166 38.5 28.5999 37.6666 28.7999C34.6833 29.4666 32.15 31.2499 30.5 33.8166C28.8666 36.3999 28.3333 39.4499 28.9833 42.4333C29.65 45.4166 31.4333 47.9499 34.0166 49.5999C34.45 49.8833 34.9 50.1166 35.35 50.3333C35.8 50.5499 36.2666 50.7166 36.7333 50.8666C36.7833 50.8833 36.8166 50.8999 36.8666 50.9166L38 47.7833C37.8833 47.7499 37.7666 47.7166 37.65 47.6833C37.0166 47.4833 36.3833 47.1833 35.8 46.8166C33.9666 45.6499 32.7166 43.8499 32.2333 41.7333C31.7666 39.6166 32.15 37.4499 33.3 35.6166C34.4666 33.7833 36.2666 32.5166 38.3833 32.0499C39.7 31.7499 41.05 31.7999 42.3 32.1499C42.7 32.2666 43.1 32.3999 43.4833 32.5833L44.6 29.4833L44.6167 29.4499C44.1667 29.2333 43.7 29.0666 43.2333 28.9333Z" fill="black"/>
<path d="M39.6333 19.7332C41.0877 19.7332 42.2667 18.5542 42.2667 17.0999C42.2667 15.6455 41.0877 14.4666 39.6333 14.4666C38.179 14.4666 37 15.6455 37 17.0999C37 18.5542 38.179 19.7332 39.6333 19.7332Z" fill="black"/>
<path d="M61.5667 42.3165C63.021 42.3165 64.2 41.1375 64.2 39.6831C64.2 38.2288 63.021 37.0498 61.5667 37.0498C60.1123 37.0498 58.9333 38.2288 58.9333 39.6831C58.9333 41.1375 60.1123 42.3165 61.5667 42.3165Z" fill="black"/>
<path d="M39.6333 64.6331C41.0877 64.6331 42.2667 63.4541 42.2667 61.9998C42.2667 60.5454 41.0877 59.3665 39.6333 59.3665C38.179 59.3665 37 60.5454 37 61.9998C37 63.4541 38.179 64.6331 39.6333 64.6331Z" fill="black"/>
<path d="M17.2167 42.3165C18.671 42.3165 19.85 41.1375 19.85 39.6831C19.85 38.2288 18.671 37.0498 17.2167 37.0498C15.7623 37.0498 14.5833 38.2288 14.5833 39.6831C14.5833 41.1375 15.7623 42.3165 17.2167 42.3165Z" fill="black"/>
<path d="M23.75 26.0665C25.2044 26.0665 26.3833 24.8875 26.3833 23.4331C26.3833 21.9788 25.2044 20.7998 23.75 20.7998C22.2957 20.7998 21.1167 21.9788 21.1167 23.4331C21.1167 24.8875 22.2957 26.0665 23.75 26.0665Z" fill="black"/>
<path d="M55.2333 26.6666C56.6877 26.6666 57.8667 25.4876 57.8667 24.0332C57.8667 22.5789 56.6877 21.3999 55.2333 21.3999C53.779 21.3999 52.6 22.5789 52.6 24.0332C52.6 25.4876 53.779 26.6666 55.2333 26.6666Z" fill="black"/>
<path d="M55.3667 57.9666C56.821 57.9666 58 56.7876 58 55.3333C58 53.8789 56.821 52.7 55.3667 52.7C53.9123 52.7 52.7333 53.8789 52.7333 55.3333C52.7333 56.7876 53.9123 57.9666 55.3667 57.9666Z" fill="black"/>
<path d="M23.7333 57.8831C25.1877 57.8831 26.3666 56.7041 26.3666 55.2498C26.3666 53.7954 25.1877 52.6165 23.7333 52.6165C22.279 52.6165 21.1 53.7954 21.1 55.2498C21.1 56.7041 22.279 57.8831 23.7333 57.8831Z" fill="black"/>
</svg>
