<svg width="16" height="18" viewBox="0 0 16 18" fill="none" xmlns="http://www.w3.org/2000/svg">
<path d="M15.7873 5.04865L10.6964 0.2025C10.6288 0.13823 10.5485 0.0872668 10.4603 0.0525212C10.372 0.0177756 10.2774 -7.12979e-05 10.1818 2.1406e-07H1.45455C1.06878 2.1406e-07 0.698807 0.145879 0.426026 0.405545C0.153246 0.66521 0 1.01739 0 1.38462V16.6154C0 16.9826 0.153246 17.3348 0.426026 17.5945C0.698807 17.8541 1.06878 18 1.45455 18H14.5455C14.9312 18 15.3012 17.8541 15.574 17.5945C15.8468 17.3348 16 16.9826 16 16.6154V5.53846C16.0001 5.44752 15.9813 5.35745 15.9448 5.27341C15.9083 5.18937 15.8548 5.113 15.7873 5.04865ZM10.6964 12.259L8.51455 14.336C8.447 14.4003 8.36679 14.4514 8.2785 14.4862C8.19021 14.5211 8.09558 14.539 8 14.539C7.90443 14.539 7.80979 14.5211 7.7215 14.4862C7.63321 14.4514 7.553 14.4003 7.48545 14.336L5.30364 12.259C5.16717 12.1291 5.0905 11.9529 5.0905 11.7692C5.0905 11.5855 5.16717 11.4093 5.30364 11.2794C5.4401 11.1495 5.62519 11.0765 5.81818 11.0765C6.01117 11.0765 6.19626 11.1495 6.33273 11.2794L7.27273 12.1751V8.30769C7.27273 8.12408 7.34935 7.94799 7.48574 7.81816C7.62213 7.68832 7.80712 7.61539 8 7.61539C8.19289 7.61539 8.37787 7.68832 8.51426 7.81816C8.65065 7.94799 8.72727 8.12408 8.72727 8.30769V12.1751L9.66727 11.2794C9.80374 11.1495 9.98883 11.0765 10.1818 11.0765C10.3748 11.0765 10.5599 11.1495 10.6964 11.2794C10.8328 11.4093 10.9095 11.5855 10.9095 11.7692C10.9095 11.9529 10.8328 12.1291 10.6964 12.259ZM10.1818 5.53846V1.73077L14.1818 5.53846H10.1818Z" fill="#A9A9A9"/>
</svg>
