<svg width="80" height="80" viewBox="0 0 80 80" fill="none" xmlns="http://www.w3.org/2000/svg">
<g clip-path="url(#clip0)">
<path d="M68.2333 -0.0166016H12.2333C8.55001 -0.0166016 5.56668 2.96673 5.56668 6.65007V73.3167C5.56668 77.0001 8.55001 79.9834 12.2333 79.9834H68.2333C71.9167 79.9834 74.9 77.0001 74.9 73.3167V6.65007C74.9 2.96673 71.9167 -0.0166016 68.2333 -0.0166016ZM72.2334 73.3167C72.2334 75.5167 70.4333 77.3167 68.2333 77.3167H12.2333C10.0333 77.3167 8.23335 75.5167 8.23335 73.3167V6.65007C8.23335 4.45007 10.0333 2.65007 12.2333 2.65007H68.2333C70.4333 2.65007 72.2334 4.45007 72.2334 6.65007V73.3167Z" fill="black"/>
<path d="M68.2334 6.65015H12.2334C11.5 6.65015 10.9 7.25015 10.9 7.98348V71.9835C10.9 72.7168 11.5 73.3168 12.2334 73.3168H68.2334C68.9667 73.3168 69.5667 72.7168 69.5667 71.9835V7.98348C69.5667 7.23348 68.9667 6.65015 68.2334 6.65015ZM38.9 70.6502H13.5667V67.9835H38.9V70.6502ZM38.9 65.3168H13.5667V62.6502H38.9V65.3168ZM38.9 59.9835H13.5667V57.3168H38.9V59.9835ZM38.9 54.6502H13.5667V51.9835H38.9V54.6502ZM38.9 49.3168H13.5667V46.6502H38.9V49.3168ZM38.9 43.9835H13.5667V41.3168H38.9V43.9835ZM38.9 38.6502H13.5667V35.9835H38.9V38.6502ZM38.9 33.3168H13.5667V30.6502H38.9V33.3168ZM38.9 27.9835H13.5667V25.3168H38.9V27.9835ZM38.9 22.6501H13.5667V19.9835H38.9V22.6501ZM38.9 17.3168H13.5667V14.6501H38.9V17.3168ZM38.9 11.9835H13.5667V9.31681H38.9V11.9835ZM66.9 70.6502H41.5667V67.9835H66.9V70.6502ZM66.9 65.3168H41.5667V62.6502H66.9V65.3168ZM66.9 59.9835H41.5667V57.3168H66.9V59.9835ZM66.9 54.6502H41.5667V51.9835H66.9V54.6502ZM66.9 49.3168H41.5667V46.6502H66.9V49.3168ZM66.9 43.9835H41.5667V41.3168H66.9V43.9835ZM66.9 38.6502H41.5667V35.9835H66.9V38.6502ZM66.9 33.3168H41.5667V30.6502H66.9V33.3168ZM66.9 27.9835H41.5667V25.3168H66.9V27.9835ZM66.9 22.6501H41.5667V19.9835H66.9V22.6501ZM66.9 17.3168H41.5667V14.6501H66.9V17.3168ZM66.9 11.9835H41.5667V9.31681H66.9V11.9835Z" fill="black"/>
</g>
<defs>
<clipPath id="clip0">
<rect width="80" height="80" fill="white"/>
</clipPath>
</defs>
</svg>
