<svg width="80" height="80" viewBox="0 0 80 80" fill="none" xmlns="http://www.w3.org/2000/svg">
<path d="M19.35 64.3335C21.4833 64.3335 23.2 62.6002 23.2 60.4835C23.2 58.3669 21.4667 56.6335 19.35 56.6335C17.2333 56.6335 15.5 58.3502 15.5 60.4669C15.5 62.5835 17.2333 64.3335 19.35 64.3335ZM19.35 59.1835C20.0667 59.1835 20.6333 59.7669 20.6333 60.4669C20.6333 61.1669 20.05 61.7502 19.35 61.7502C18.65 61.7502 18.0667 61.1669 18.0667 60.4669C18.0667 59.7669 18.65 59.1835 19.35 59.1835Z" fill="black"/>
<path d="M33.5 60.4669C33.5 52.6669 27.15 46.3169 19.35 46.3169C11.55 46.3169 5.21667 52.6669 5.21667 60.4669C5.21667 68.2669 11.5667 74.6169 19.3667 74.6169C27.1667 74.6169 33.5 68.2669 33.5 60.4669ZM15.95 71.5336C16.6 70.3002 17.9 69.4669 19.35 69.4669C20.8 69.4669 22.1 70.3002 22.75 71.5336C21.6667 71.8669 20.5333 72.0502 19.35 72.0502C18.1667 72.0502 17.0333 71.8669 15.95 71.5336ZM28.3667 60.4669C28.3667 59.0169 29.2 57.7169 30.4333 57.0669C30.7667 58.1502 30.95 59.2836 30.95 60.4669C30.95 61.6502 30.7667 62.7836 30.4333 63.8669C29.1833 63.2169 28.3667 61.9169 28.3667 60.4669ZM22.75 49.4169C22.1 50.6502 20.8 51.4836 19.35 51.4836C17.9 51.4836 16.6 50.6502 15.95 49.4169C17.0333 49.0836 18.1667 48.9002 19.35 48.9002C20.5333 48.9002 21.6833 49.0836 22.75 49.4169ZM10.35 60.4669C10.35 61.9169 9.51667 63.2169 8.28334 63.8669C7.95001 62.7836 7.76667 61.6502 7.76667 60.4669C7.76667 59.2836 7.95001 58.1502 8.28334 57.0669C9.53334 57.7336 10.35 59.0169 10.35 60.4669ZM9.31668 66.2169C11.4667 65.1502 12.9167 62.9502 12.9167 60.4669C12.9167 57.9836 11.4667 55.7836 9.31668 54.7169C10.3333 52.9336 11.8167 51.4502 13.6 50.4336C14.6667 52.5836 16.8667 54.0336 19.35 54.0336C21.8333 54.0336 24.0333 52.5836 25.1 50.4336C26.8833 51.4502 28.3667 52.9336 29.3833 54.7169C27.2333 55.7836 25.7833 57.9836 25.7833 60.4669C25.7833 62.9502 27.2333 65.1502 29.3833 66.2169C28.3667 68.0002 26.8833 69.4836 25.1 70.5002C24.0333 68.3502 21.8333 66.9002 19.35 66.9002C16.8667 66.9002 14.6667 68.3502 13.6167 70.5002C11.8333 69.4836 10.35 68.0002 9.31668 66.2169Z" fill="black"/>
<path d="M61.8 11.6001C61.8 15.1501 64.6833 18.0334 68.2333 18.0334C71.7833 18.0334 74.6667 15.1501 74.6667 11.6001C74.6667 8.05008 71.7833 5.16675 68.2333 5.16675C64.6833 5.18341 61.8 8.06675 61.8 11.6001ZM72.0833 11.6001C72.0833 13.7334 70.35 15.4501 68.2333 15.4501C66.1 15.4501 64.3833 13.7167 64.3833 11.6001C64.3833 9.48342 66.1167 7.75008 68.2333 7.75008C70.35 7.75008 72.0833 9.48342 72.0833 11.6001Z" fill="black"/>
<path d="M79.8 11.6001C79.6833 5.26678 74.5667 0.133447 68.2333 0.0334473C68.2 0.0334473 68.1667 0.0334473 68.1333 0.0334473C68.1 0.0334473 68.0667 0.0334473 68.0333 0.0334473C65.3833 0.0334473 62.7833 0.950114 60.7 2.60011L7.41665 45.0001C2.73332 48.7168 0.0499878 54.2834 0.0499878 60.2668C0.0499878 60.3001 0.0499878 60.3334 0.0499878 60.3668C0.0499878 60.4001 0.0499878 60.4334 0.0499878 60.4834H0.0666545C0.183321 71.0668 8.76665 79.6501 19.35 79.7668V79.7834C19.3833 79.7834 19.4167 79.7834 19.45 79.7834C19.4833 79.7834 19.5167 79.7834 19.55 79.7834H68.2C74.5833 79.7834 79.7667 74.6001 79.7667 68.2168V11.8001C79.7667 11.7668 79.7667 11.7334 79.7667 11.7001C79.7667 11.6668 79.8 11.6334 79.8 11.6001ZM77.2167 11.7001C77.1667 16.6168 73.15 20.6001 68.2167 20.6001C63.25 20.6001 59.2167 16.5668 59.2167 11.6001C59.2167 7.01678 62.65 3.25011 67.0833 2.68345C67.3 2.66678 67.5167 2.63345 67.7333 2.63345C67.8667 2.63345 67.9833 2.61678 68.1167 2.61678C73.1167 2.66678 77.1667 6.71678 77.2167 11.7001ZM70.6167 25.9168L68.05 30.6168L70.6167 35.3168L68.05 40.0168L70.6167 44.7168L68.05 49.4168L70.6167 54.1168L69.2167 56.6834C68.8833 56.6501 68.5667 56.6334 68.2333 56.6334C61.85 56.6334 56.6667 61.8168 56.6667 68.2001C56.6667 68.7834 56.7167 69.3668 56.8167 69.9168L55.8167 70.5334L51.6667 67.9668L47.5333 70.5334L43.4 67.9668L39.2333 70.5501L36.6167 69.0501C37.9167 66.4668 38.65 63.5501 38.65 60.4668C38.65 53.0501 34.4333 46.6001 28.2667 43.3668L30.6333 38.2168L36.2167 37.0668L38.5833 31.8834L44.15 30.7334L46.5333 25.5501L52.1167 24.4001L54.4833 19.2168L58.8333 18.3168C60.9333 21.2334 64.35 23.1501 68.2167 23.1501C68.5167 23.1501 68.8 23.1334 69.0833 23.1001L70.6167 25.9168ZM57.5167 15.9834L52.6833 16.9834L50.3167 22.1668L44.7333 23.3168L42.3667 28.5001L36.8 29.6501L34.4333 34.8334L28.85 35.9834L26.4667 41.1668L23.7667 41.7334C22.35 41.4001 20.8833 41.2001 19.3667 41.2001C18.2 41.2001 17.0667 41.3168 15.95 41.5168L57 8.81678C56.7833 9.71678 56.65 10.6334 56.65 11.6001C56.65 13.1501 56.9667 14.6334 57.5167 15.9834ZM2.64999 60.3668C2.71665 51.2001 10.1833 43.7501 19.3667 43.7501C28.5833 43.7501 36.0833 51.2501 36.0833 60.4668C36.0833 69.6501 28.6333 77.1168 19.4667 77.1834C10.2167 77.1334 2.69999 69.6168 2.64999 60.3668ZM28.9333 77.1834C31.4833 75.7168 33.6667 73.7001 35.3167 71.2834L39.2833 73.5501L43.3833 71.0001L47.5167 73.5668L51.65 71.0001L55.7833 73.5668L57.5 72.5001C58.25 74.3501 59.45 75.9501 60.9667 77.1834H28.9333ZM68.2167 77.1834C63.25 77.1834 59.2167 73.1501 59.2167 68.1834C59.2167 63.2168 63.25 59.1834 68.2167 59.1834C73.1833 59.1834 77.2167 63.2168 77.2167 68.1834C77.2167 73.1501 73.1833 77.1834 68.2167 77.1834ZM77.2333 60.9334C75.85 59.2168 73.9833 57.9168 71.85 57.2001L73.55 54.1001L70.9833 49.4001L73.55 44.7001L70.9833 40.0001L73.55 35.3001L70.9833 30.6001L73.55 25.9001L71.75 22.6168C73.9333 21.9168 75.8167 20.6001 77.2333 18.8501V60.9334Z" fill="black"/>
<path d="M68.2167 61.7668C64.6667 61.7668 61.7833 64.6502 61.7833 68.2002C61.7833 71.7502 64.6667 74.6335 68.2167 74.6335C71.7667 74.6335 74.65 71.7502 74.65 68.2002C74.65 64.6502 71.7667 61.7668 68.2167 61.7668ZM68.2167 72.0502C66.0833 72.0502 64.3667 70.3168 64.3667 68.2002C64.3667 66.0835 66.1 64.3502 68.2167 64.3502C70.35 64.3502 72.0667 66.0835 72.0667 68.2002C72.0667 70.3168 70.35 72.0502 68.2167 72.0502Z" fill="black"/>
</svg>
