<svg width="80" height="80" viewBox="0 0 80 80" fill="none" xmlns="http://www.w3.org/2000/svg">
<path d="M58.2667 21.5501C58.2667 25.6278 54.961 28.9334 50.8833 28.9334C46.8056 28.9334 43.5 25.6278 43.5 21.5501C43.5 17.4724 46.8056 14.1667 50.8833 14.1667C54.961 14.1667 58.2667 17.4724 58.2667 21.5501ZM46.199 21.5501C46.199 24.1372 48.2963 26.2344 50.8833 26.2344C53.4704 26.2344 55.5676 24.1372 55.5676 21.5501C55.5676 18.963 53.4704 16.8658 50.8833 16.8658C48.2963 16.8658 46.199 18.963 46.199 21.5501Z" fill="black"/>
<path d="M26.6 53.0501C26.6 57.1278 23.2943 60.4334 19.2166 60.4334C15.1389 60.4334 11.8333 57.1278 11.8333 53.0501C11.8333 48.9724 15.1389 45.6667 19.2166 45.6667C23.2943 45.6667 26.6 48.9724 26.6 53.0501ZM14.5323 53.0501C14.5323 55.6372 16.6296 57.7344 19.2166 57.7344C21.8037 57.7344 23.901 55.6372 23.901 53.0501C23.901 50.463 21.8037 48.3658 19.2166 48.3658C16.6296 48.3658 14.5323 50.463 14.5323 53.0501Z" fill="black"/>
<path d="M16.7667 72.8501L71.1833 18.7334C71.1833 18.7334 74.15 15.6001 72.6667 12.2001C71.1833 8.8001 68.3833 8.1001 66.8833 8.0001C65.3833 7.9001 55.2833 6.78344 55.2833 6.78344C55.2833 6.78344 48.9 6.16677 43.9 11.1334C38.9 16.1001 9.33332 45.5334 9.33332 45.5334C9.33332 45.5334 4.26666 49.8834 4.98332 57.7001C5.69999 65.5168 6.13332 69.0501 6.13332 69.0501C6.13332 69.0501 6.73332 73.3168 10.25 74.3168C13.7667 75.3168 15.95 73.6668 16.7667 72.8501Z" stroke="black" stroke-width="4" stroke-miterlimit="10"/>
</svg>
