<svg width="24" height="26" viewBox="0 0 24 26" fill="none" xmlns="http://www.w3.org/2000/svg">
<path d="M10.3781 24.6185C10.3781 24.8959 10.277 25.162 10.0972 25.3581C9.91739 25.5543 9.67351 25.6645 9.4192 25.6645H1.7484C1.4941 25.6645 1.25021 25.5543 1.07039 25.3581C0.890572 25.162 0.789551 24.8959 0.789551 24.6185V1.60532C0.789551 1.32789 0.890572 1.06182 1.07039 0.865647C1.25021 0.669474 1.4941 0.559265 1.7484 0.559265H9.4192C9.67351 0.559265 9.91739 0.669474 10.0972 0.865647C10.277 1.06182 10.3781 1.32789 10.3781 1.60532C10.3781 1.88275 10.277 2.14882 10.0972 2.34499C9.91739 2.54116 9.67351 2.65137 9.4192 2.65137H2.70725V23.5724H9.4192C9.67351 23.5724 9.91739 23.6826 10.0972 23.8788C10.277 24.075 10.3781 24.341 10.3781 24.6185ZM23.5215 12.3718L18.7272 7.14155C18.5931 6.99509 18.4222 6.89533 18.2361 6.8549C18.05 6.81447 17.8571 6.83519 17.6818 6.91443C17.5065 6.99367 17.3567 7.12787 17.2514 7.30005C17.146 7.47222 17.0899 7.67462 17.09 7.88163V12.0658H9.4192C9.1649 12.0658 8.92101 12.1761 8.74119 12.3722C8.56137 12.5684 8.46035 12.8345 8.46035 13.1119C8.46035 13.3893 8.56137 13.6554 8.74119 13.8516C8.92101 14.0477 9.1649 14.1579 9.4192 14.1579H17.09V18.3422C17.0899 18.5492 17.146 18.7516 17.2514 18.9237C17.3567 19.0959 17.5065 19.2301 17.6818 19.3094C17.8571 19.3886 18.05 19.4093 18.2361 19.3689C18.4222 19.3285 18.5931 19.2287 18.7272 19.0822L23.5215 13.852C23.6106 13.7548 23.6814 13.6395 23.7296 13.5125C23.7779 13.3855 23.8027 13.2494 23.8027 13.1119C23.8027 12.9744 23.7779 12.8383 23.7296 12.7113C23.6814 12.5843 23.6106 12.469 23.5215 12.3718Z" fill="#A9A9A9"/>
</svg>
