<svg width="204" height="59" viewBox="0 0 204 59" fill="none" xmlns="http://www.w3.org/2000/svg">
<g clip-path="url(#clip0)">
<path d="M117.764 55.9559C117.764 58.155 118.744 59.0835 120.949 59.0835H135.777C137.982 59.0835 138.913 58.155 138.913 55.9559V51.5903H134.454V53.8057C134.454 54.4899 134.063 54.8808 133.377 54.8808H123.757C123.055 54.8808 122.663 54.4899 122.663 53.8057V27.661C122.663 25.4456 121.732 24.5171 119.528 24.5171H114.563V28.7361H116.686C117.372 28.7361 117.764 29.0782 117.764 29.8112V55.9559ZM143.731 29.4691H147.993V24.5171H143.731V29.4691ZM143.633 55.9559C143.633 58.155 144.564 59.0835 146.768 59.0835H151.488V55.0274H149.479C148.777 55.0274 148.385 54.6854 148.385 53.9523V37.451C148.385 35.2356 147.454 34.3071 145.2 34.3071H140.546V38.3795H142.555C143.241 38.3795 143.633 38.7216 143.633 39.4546V55.9559ZM162.528 59.0835H168.032L175.642 39.3569C175.887 38.6239 176.426 38.3795 177.21 38.3795H177.7V34.3071H175.397C173.225 34.3071 172.343 34.8447 171.608 36.8157L166.317 51.0528C165.81 52.4374 165.419 54.2944 165.419 54.2944H165.321C165.321 54.2944 164.929 52.4374 164.439 51.0528L159.098 36.8157C158.363 34.8447 157.531 34.3071 155.309 34.3071H152.86V38.3795H153.35C154.134 38.3795 154.624 38.6239 154.869 39.3569L162.528 59.0835ZM179.463 46.7035C179.463 54.0501 184.869 59.67 192.675 59.67C197.379 59.67 201.119 57.1288 202.295 56.1514L200.286 52.6817C199.437 53.2682 196.742 55.565 192.969 55.565C188.495 55.565 184.673 52.6817 184.379 47.3388H202.491C202.54 46.9478 202.637 46.0193 202.637 45.3352C202.637 38.9659 198.947 33.7207 191.941 33.7207C184.869 33.7207 179.463 38.8193 179.463 46.7035ZM184.575 43.918C185.261 39.7967 188.152 37.4021 191.843 37.4021C195.076 37.4021 197.722 39.6501 197.869 43.918H184.575Z" fill="#898989" stroke="#898989" stroke-width="0.0762"/>
<path d="M22.3081 56.8681C22.5204 58.4319 23.6146 59.279 25.7376 59.279H30.8003V54.7831H28.5629C27.8117 54.7831 27.3544 54.4084 27.3707 53.5939L27.4687 47.5179C27.5014 47.1432 27.5177 46.7849 27.5177 46.4102C27.5177 38.8681 21.4915 33.4111 14.0444 33.4111C6.59736 33.4111 0.620117 38.8681 0.620117 46.4102C0.620117 53.9849 6.59736 59.507 14.0444 59.507C17.1637 59.507 20.0217 58.546 22.3081 56.8681ZM22.6347 46.4102L22.5857 47.3061C22.1774 52.0464 18.5029 55.3695 14.0444 55.3695C9.35735 55.3695 5.45417 51.6229 5.45417 46.4102C5.45417 41.2301 9.35735 37.5487 14.0444 37.5487C18.7805 37.5487 22.6347 41.2301 22.6347 46.4102Z" fill="#898989" stroke="#898989" stroke-width="0.0762"/>
<path d="M40.5503 59.1816H46.0703L53.7297 39.3409C53.9746 38.6079 54.5136 38.3636 55.2975 38.3636H55.7874V34.2749H53.4684C51.2963 34.2749 50.4144 34.8125 49.6795 36.7835L44.3392 51.102C43.8492 52.4866 43.4573 54.3599 43.4573 54.3599H43.3593C43.3593 54.3599 42.9674 52.4866 42.4774 51.102L37.0881 36.7835C36.3532 34.8125 35.504 34.2749 33.2829 34.2749H30.8169V38.3636H31.3232C32.1071 38.3636 32.597 38.6079 32.842 39.3409L40.5503 59.1816Z" fill="#898989" stroke="#898989" stroke-width="0.0762"/>
<path fill-rule="evenodd" clip-rule="evenodd" d="M55.5586 0.76709H114.449V59.5072H55.5586V0.76709Z" fill="#898989" stroke="#898989" stroke-width="0.0762"/>
<path d="M84.8571 41.5072C84.8571 34.633 90.0505 29.7298 96.2727 29.7298C102.577 29.7298 107.688 34.633 107.688 41.5072C107.688 48.4303 102.577 53.4149 96.2727 53.4149C90.0505 53.4149 84.8571 48.4303 84.8571 41.5072ZM78.439 41.5072C78.439 51.5741 86.376 58.9044 96.2727 58.9044C106.186 58.9044 114.172 51.5741 114.172 41.5072C114.172 31.4891 106.186 24.2402 96.2727 24.2402C86.376 24.2402 78.439 31.4891 78.439 41.5072Z" fill="#B0CB1F" stroke="#B0CB1F" stroke-width="0.0762"/>
<path fill-rule="evenodd" clip-rule="evenodd" d="M55.624 28.8339V24.061H80.7742V28.8339H71.204V59.1488H64.9655V28.8339H55.624Z" fill="#B0CB1F" stroke="#B0CB1F" stroke-width="0.0762"/>
</g>
<defs>
<clipPath id="clip0">
<rect width="204" height="59" fill="white"/>
</clipPath>
</defs>
</svg>
