<svg width="80" height="80" viewBox="0 0 80 80" fill="none" xmlns="http://www.w3.org/2000/svg">
<path d="M46.6312 46.8852L40.0002 36.2749L33.3693 46.8852C32.6428 48.0465 32.2583 49.3859 32.2583 50.7575C32.2583 54.7872 35.5357 58.0646 39.5654 58.0646H40.4364C44.4648 58.0646 47.7422 54.7872 47.7422 50.7575C47.7422 49.3859 47.3577 48.0465 46.6312 46.8852ZM40.4351 55.4839H39.5641C36.9589 55.4839 34.8389 53.3639 34.8389 50.7575C34.8389 49.8697 35.0867 49.0052 35.5577 48.253L40.0002 41.1446L44.4428 48.2542C44.9138 49.0052 45.1615 49.871 45.1615 50.7575C45.1615 53.3639 43.0415 55.4839 40.4351 55.4839Z" fill="black"/>
<path d="M52.903 30.9678H27.0966C24.9624 30.9678 23.2256 32.7045 23.2256 34.8387V68.3871C23.2256 70.5213 24.9624 72.2581 27.0966 72.2581H52.903C55.0372 72.2581 56.774 70.5213 56.774 68.3871V34.8387C56.774 32.7045 55.0372 30.9678 52.903 30.9678ZM54.1933 68.3871C54.1933 69.0981 53.614 69.6774 52.903 69.6774H27.0966C26.3856 69.6774 25.8062 69.0981 25.8062 68.3871V34.8387C25.8062 34.1278 26.3856 33.5484 27.0966 33.5484H52.903C53.614 33.5484 54.1933 34.1278 54.1933 34.8387V68.3871Z" fill="black"/>
<path d="M60.7727 26.8284L45.1611 16.0955V10.3226H42.5805V3.87097C42.5805 1.73677 40.8437 0 38.7095 0H20.645C18.5108 0 16.774 1.73677 16.774 3.87097V10.3226H14.1934V16.7742V18.0645V74.8387C14.1934 77.6852 16.5082 80 19.3547 80H60.645C63.4914 80 65.8063 77.6852 65.8063 74.8387V36.3974C65.8063 32.5729 63.925 28.9948 60.7727 26.8284ZM19.3547 3.87097C19.3547 3.16 19.934 2.58065 20.645 2.58065H23.2256V7.74194H25.8063V2.58065H28.3869V7.74194H30.9676V2.58065H33.5482V7.74194H36.1288V2.58065H38.7095C39.4205 2.58065 39.9998 3.16 39.9998 3.87097V10.3226H19.3547V3.87097ZM63.2256 74.8387C63.2256 76.2619 62.0682 77.4193 60.645 77.4193H19.3547C17.9314 77.4193 16.774 76.2619 16.774 74.8387V18.0645H37.4192V15.4839H16.774V12.9032H42.5805V15.4839H39.9998V18.0645H43.4695L59.3108 28.9548C61.7624 30.64 63.2256 33.4232 63.2256 36.3987V74.8387Z" fill="black"/>
<path d="M36.129 63.2256H33.5483V65.8062H36.129V63.2256Z" fill="black"/>
<path d="M41.2901 63.2256H38.7095V65.8062H41.2901V63.2256Z" fill="black"/>
<path d="M46.4517 63.2256H43.8711V65.8062H46.4517V63.2256Z" fill="black"/>
</svg>
