<svg width="24" height="24" viewBox="0 0 24 24" fill="none" xmlns="http://www.w3.org/2000/svg">
<ellipse cx="12.0001" cy="12.6317" rx="9.47368" ry="8.8421" fill="white"/>
<path d="M20.4836 3.51563C15.7961 -1.17188 8.19766 -1.17188 3.51484 3.51563C-1.16797 8.20313 -1.17266 15.8016 3.51484 20.4844C8.20235 25.1672 15.8008 25.1719 20.4836 20.4844C22.7336 18.2344 23.9992 15.1828 23.9992 12C23.9992 8.81719 22.7336 5.76563 20.4836 3.51563ZM18.1727 16.7156L17.5633 17.3156C16.7758 18.1125 15.632 18.4406 14.5445 18.1781C13.4477 17.8828 12.407 17.4188 11.4555 16.7953C10.5742 16.2328 9.7586 15.5719 9.01797 14.8313C8.33828 14.1563 7.72891 13.4156 7.19922 12.6234C6.61797 11.7703 6.1586 10.8375 5.83047 9.85313C5.45547 8.7 5.76485 7.43438 6.63203 6.58594L7.34453 5.87344C7.54141 5.67656 7.86485 5.67188 8.06172 5.87344L10.3117 8.12344C10.5086 8.32031 10.5133 8.64375 10.3117 8.84063L8.98985 10.1625C8.61016 10.5375 8.56328 11.1328 8.87735 11.5641C9.35547 12.2203 9.88516 12.8344 10.457 13.4063C11.0992 14.0484 11.793 14.6344 12.5383 15.1547C12.9695 15.4547 13.5508 15.4031 13.9211 15.0328L15.1961 13.7391C15.393 13.5422 15.7164 13.5375 15.9133 13.7391L18.1633 15.9938C18.3695 16.1953 18.3695 16.5188 18.1727 16.7156Z" fill="#B0CB1F"/>
</svg>
