<svg width="80" height="80" viewBox="0 0 80 80" fill="none" xmlns="http://www.w3.org/2000/svg">
<path d="M6.81666 58.8168C7.55304 58.8168 8.14999 58.2199 8.14999 57.4835C8.14999 56.7471 7.55304 56.1501 6.81666 56.1501C6.08028 56.1501 5.48332 56.7471 5.48332 57.4835C5.48332 58.2199 6.08028 58.8168 6.81666 58.8168Z" fill="black"/>
<path d="M18.8167 46.8168C19.553 46.8168 20.15 46.2199 20.15 45.4835C20.15 44.7471 19.553 44.1501 18.8167 44.1501C18.0803 44.1501 17.4833 44.7471 17.4833 45.4835C17.4833 46.2199 18.0803 46.8168 18.8167 46.8168Z" fill="black"/>
<path d="M29.4833 30.8168C30.2197 30.8168 30.8166 30.2199 30.8166 29.4835C30.8166 28.7471 30.2197 28.1501 29.4833 28.1501C28.7469 28.1501 28.15 28.7471 28.15 29.4835C28.15 30.2199 28.7469 30.8168 29.4833 30.8168Z" fill="black"/>
<path d="M51.4833 52.8168C52.2197 52.8168 52.8167 52.2199 52.8167 51.4835C52.8167 50.7471 52.2197 50.1501 51.4833 50.1501C50.7469 50.1501 50.15 50.7471 50.15 51.4835C50.15 52.2199 50.7469 52.8168 51.4833 52.8168Z" fill="black"/>
<path d="M22.8166 74.8168C23.553 74.8168 24.15 74.2199 24.15 73.4835C24.15 72.7471 23.553 72.1501 22.8166 72.1501C22.0803 72.1501 21.4833 72.7471 21.4833 73.4835C21.4833 74.2199 22.0803 74.8168 22.8166 74.8168Z" fill="black"/>
<path d="M16.15 72.1501C16.8864 72.1501 17.4833 71.5531 17.4833 70.8167C17.4833 70.0804 16.8864 69.4834 16.15 69.4834C15.4136 69.4834 14.8167 70.0804 14.8167 70.8167C14.8167 71.5531 15.4136 72.1501 16.15 72.1501Z" fill="black"/>
<path d="M9.48333 65.4836C10.2197 65.4836 10.8167 64.8866 10.8167 64.1502C10.8167 63.4138 10.2197 62.8169 9.48333 62.8169C8.74695 62.8169 8.14999 63.4138 8.14999 64.1502C8.14999 64.8866 8.74695 65.4836 9.48333 65.4836Z" fill="black"/>
<path d="M57.4833 8.15006C58.2197 8.15006 58.8167 7.55311 58.8167 6.81673C58.8167 6.08035 58.2197 5.4834 57.4833 5.4834C56.7469 5.4834 56.15 6.08035 56.15 6.81673C56.15 7.55311 56.7469 8.15006 57.4833 8.15006Z" fill="black"/>
<path d="M45.4833 20.1501C46.2197 20.1501 46.8167 19.5531 46.8167 18.8167C46.8167 18.0804 46.2197 17.4834 45.4833 17.4834C44.7469 17.4834 44.15 18.0804 44.15 18.8167C44.15 19.5531 44.7469 20.1501 45.4833 20.1501Z" fill="black"/>
<path d="M73.4833 24.1501C74.2197 24.1501 74.8167 23.5531 74.8167 22.8167C74.8167 22.0804 74.2197 21.4834 73.4833 21.4834C72.7469 21.4834 72.15 22.0804 72.15 22.8167C72.15 23.5531 72.7469 24.1501 73.4833 24.1501Z" fill="black"/>
<path d="M61.4833 36.1501C62.2197 36.1501 62.8167 35.5531 62.8167 34.8167C62.8167 34.0804 62.2197 33.4834 61.4833 33.4834C60.7469 33.4834 60.15 34.0804 60.15 34.8167C60.15 35.5531 60.7469 36.1501 61.4833 36.1501Z" fill="black"/>
<path d="M34.8167 62.8168C35.553 62.8168 36.15 62.2199 36.15 61.4835C36.15 60.7471 35.553 60.1501 34.8167 60.1501C34.0803 60.1501 33.4833 60.7471 33.4833 61.4835C33.4833 62.2199 34.0803 62.8168 34.8167 62.8168Z" fill="black"/>
<path d="M70.8167 17.4836C71.553 17.4836 72.15 16.8866 72.15 16.1502C72.15 15.4138 71.553 14.8169 70.8167 14.8169C70.0803 14.8169 69.4833 15.4138 69.4833 16.1502C69.4833 16.8866 70.0803 17.4836 70.8167 17.4836Z" fill="black"/>
<path d="M64.15 10.8168C64.8864 10.8168 65.4833 10.2199 65.4833 9.48348C65.4833 8.7471 64.8864 8.15015 64.15 8.15015C63.4136 8.15015 62.8167 8.7471 62.8167 9.48348C62.8167 10.2199 63.4136 10.8168 64.15 10.8168Z" fill="black"/>
<path d="M22.8167 79.8168C21.4 79.8168 20.05 79.2501 19.05 78.2501L17.9667 77.1668C17.3167 76.5168 16.4167 76.1334 15.5 76.1501C13.8667 76.1501 12.3 75.5001 11.15 74.3501L5.98333 69.1834C4.81666 68.0334 4.16666 66.4668 4.18333 64.8334C4.18333 63.9001 3.81666 63.0168 3.16666 62.3668L2.08333 61.2834C-5.126e-06 59.2001 -5.126e-06 55.8334 2.08333 53.7334L23.4833 32.3334C21.9333 29.0001 23.3667 25.0168 26.7167 23.4668C28.5 22.6334 30.5667 22.6334 32.35 23.4668L53.7167 2.03345C55.8 -0.049886 59.1833 -0.049886 61.2667 2.03345L62.35 3.11678C63 3.76678 63.9 4.15011 64.8167 4.13345C66.45 4.13345 68.0167 4.78345 69.1667 5.93345L74.3333 11.1001C75.5 12.2501 76.15 13.8168 76.1333 15.4501C76.1333 16.3834 76.5 17.2668 77.15 17.9168L78.2333 19.0001C80.3167 21.0834 80.3167 24.4501 78.2333 26.5501L56.8667 47.9834C58.4167 51.3168 56.9833 55.3001 53.6333 56.8501C51.85 57.6834 49.7833 57.6834 48 56.8501L26.5833 78.2668C25.5833 79.2668 24.2333 79.8168 22.8167 79.8168ZM29.4833 25.4834C27.2667 25.4834 25.4833 27.2834 25.4833 29.4834C25.4833 30.3001 25.7333 31.1001 26.2 31.7668C26.5667 32.3001 26.5 33.0168 26.05 33.4668L3.91666 55.6001C2.88333 56.6501 2.88333 58.3334 3.91666 59.3668L5 60.4501C6.15 61.6001 6.79999 63.1668 6.79999 64.8001C6.79999 65.7334 7.16666 66.6168 7.81666 67.2668L12.9833 72.4334C13.6333 73.0834 14.5333 73.4668 15.45 73.4501C17.0833 73.4501 18.65 74.1001 19.8 75.2501L20.8833 76.3334C21.9167 77.3668 23.6167 77.3668 24.65 76.3334L46.8333 54.2501C47.2833 53.8001 48 53.7334 48.5333 54.1001C50.35 55.3668 52.85 54.9168 54.1 53.1001C55.05 51.7334 55.05 49.9001 54.1 48.5334C53.7333 48.0001 53.8 47.2834 54.25 46.8334L76.3833 24.7168C77.4167 23.6668 77.4167 21.9834 76.3833 20.9501L75.3 19.8668C74.15 18.7168 73.5 17.1501 73.5 15.5168C73.5 14.5834 73.1333 13.7001 72.4833 13.0501L67.3167 7.88345C66.6667 7.23345 65.7667 6.85011 64.85 6.86678C63.2167 6.86678 61.65 6.21678 60.5 5.06678L59.4167 3.98345C58.3833 2.95011 56.6833 2.95011 55.65 3.98345L33.4667 26.0334C33.0167 26.4834 32.3 26.5501 31.7667 26.1834C31.1 25.7334 30.3 25.4834 29.4833 25.4834Z" fill="black"/>
<path d="M60.15 28.1502C55.7333 28.1502 52.15 24.5668 52.15 20.1502C52.15 15.7335 55.7333 12.1501 60.15 12.1501C64.5667 12.1501 68.15 15.7335 68.15 20.1502C68.15 24.5668 64.5667 28.1335 60.15 28.1502ZM60.15 14.8168C57.2 14.8168 54.8167 17.2001 54.8167 20.1502C54.8167 23.1002 57.2 25.4835 60.15 25.4835C63.1 25.4835 65.4833 23.1002 65.4833 20.1502C65.4833 17.2001 63.1 14.8168 60.15 14.8168Z" fill="black"/>
<path d="M46.8167 41.4834C42.4 41.4834 38.8167 37.9001 38.8167 33.4834C38.8167 29.0667 42.4 25.4834 46.8167 25.4834C51.2333 25.4834 54.8167 29.0667 54.8167 33.4834C54.8167 37.9001 51.2333 41.4667 46.8167 41.4834ZM46.8167 28.1501C43.8667 28.1501 41.4833 30.5334 41.4833 33.4834C41.4833 36.4334 43.8667 38.8167 46.8167 38.8167C49.7667 38.8167 52.15 36.4334 52.15 33.4834C52.15 30.5334 49.7667 28.1501 46.8167 28.1501Z" fill="black"/>
<path d="M33.4833 54.8169C29.0666 54.8169 25.4833 51.2336 25.4833 46.8169C25.4833 42.4002 29.0666 38.8169 33.4833 38.8169C37.9 38.8169 41.4833 42.4002 41.4833 46.8169C41.4833 51.2336 37.9 54.8002 33.4833 54.8169ZM33.4833 41.4836C30.5333 41.4836 28.15 43.8669 28.15 46.8169C28.15 49.7669 30.5333 52.1502 33.4833 52.1502C36.4333 52.1502 38.8166 49.7669 38.8166 46.8169C38.8166 43.8669 36.4333 41.4836 33.4833 41.4836Z" fill="black"/>
<path d="M20.15 68.1501C15.7333 68.1501 12.15 64.5668 12.15 60.1501C12.15 55.7335 15.7333 52.1501 20.15 52.1501C24.5666 52.1501 28.15 55.7335 28.15 60.1501C28.15 64.5668 24.5666 68.1335 20.15 68.1501ZM20.15 54.8168C17.2 54.8168 14.8166 57.2001 14.8166 60.1501C14.8166 63.1001 17.2 65.4835 20.15 65.4835C23.1 65.4835 25.4833 63.1001 25.4833 60.1501C25.4833 57.2001 23.1 54.8168 20.15 54.8168Z" fill="black"/>
</svg>
