<svg width="25" height="25" viewBox="0 0 25 25" fill="none" xmlns="http://www.w3.org/2000/svg">
<g clip-path="url(#clip0)">
<path d="M16.4378 11.4846C16.957 11.1381 17.5697 10.9905 18.1692 11.0578L24.9999 4.22522L21.1746 0.399902L14.343 7.23243C14.4121 7.83948 14.2589 8.4596 13.8984 8.98539L16.4378 11.4846Z" fill="#B0CB1F"/>
<path d="M4.52182 19.8058L4.27433 19.5583L2.97899 20.6052L0.797363 24.0429L1.35585 24.6014L4.79639 22.4198L5.84238 21.1282L5.59396 20.877L9.93853 16.5315L8.85893 15.4668L4.52182 19.8058Z" fill="#B0CB1F"/>
<path d="M10.4635 7.75845C10.965 5.96533 10.5102 3.96114 9.10281 2.55093C7.70007 1.15379 5.71923 0.695238 3.93639 1.17901L6.95574 4.19742L6.16378 7.1542L3.20326 7.94616L0.184848 4.92961C-0.297053 6.71153 0.160566 8.69236 1.56051 10.0932C3.02769 11.5614 5.14207 11.9919 6.99123 11.3904L7.00804 11.4073L19.4282 23.8274C19.9194 24.3177 20.5638 24.5661 21.2073 24.5661C21.8517 24.5661 22.4942 24.3177 22.9873 23.8274C23.9689 22.8477 23.9689 21.2554 22.9873 20.2683L10.4635 7.75845ZM21.424 23.4053C20.8954 23.4053 20.4667 22.9747 20.4667 22.4443C20.4667 21.9119 20.8954 21.4833 21.424 21.4833C21.9563 21.4833 22.3868 21.9119 22.3868 22.4443C22.3878 22.9747 21.9572 23.4053 21.424 23.4053Z" fill="#B0CB1F"/>
</g>
<defs>
<clipPath id="clip0">
<rect width="25" height="25" fill="white"/>
</clipPath>
</defs>
</svg>
