<svg width="80" height="80" viewBox="0 0 80 80" fill="none" xmlns="http://www.w3.org/2000/svg">
<g clip-path="url(#clip0)">
<path d="M79.1137 35.5729C76.994 26.059 71.2963 17.9404 63.0703 12.7127C57.9908 9.48484 52.2098 7.5702 46.2565 7.12198C46.2048 6.53833 46.083 5.95358 45.8798 5.38009C44.973 2.82046 42.7319 1.05456 40.0313 0.771693L33.4176 0.0784848C29.7792 -0.302854 26.2097 0.961993 23.6229 3.54841L3.53682 23.6345C0.950401 26.2209 -0.314445 29.7908 0.0667084 33.429L0.759917 40.0427C1.04296 42.7433 2.80887 44.9844 5.36831 45.8912C5.94254 46.0946 6.52785 46.2203 7.11223 46.2718C7.98891 57.7271 14.1838 68.1158 23.9238 74.3056C29.9785 78.1535 36.7445 79.9893 43.4373 79.9887C55.5147 79.9878 67.3484 74.0077 74.2934 63.0823C79.5215 54.8562 81.2333 45.0864 79.1137 35.5729ZM15.8261 41.0532L23.9843 32.8952C24.2272 33.0225 24.4897 33.0876 24.7508 33.0876C25.2977 33.0876 25.8335 32.8178 26.1513 32.3245C26.1494 32.3245 26.1494 32.3245 26.1494 32.3245C26.484 31.8031 26.4907 31.1668 26.2242 30.655L31.4784 25.4009C31.7736 25.6348 32.1394 25.7619 32.5141 25.7619C32.7894 25.7619 33.0704 25.6936 33.3289 25.5476C34.1289 25.095 34.4116 24.0806 33.9589 23.2806C33.9157 23.2038 33.8658 23.1334 33.8128 23.0665L41.0412 15.8381C47.1755 15.2845 53.1655 16.7408 58.3969 20.0651C71.3222 28.2811 75.1547 45.4822 66.9406 58.4089C62.9604 64.6707 56.7799 69.0077 49.5376 70.621C42.2955 72.2343 34.8585 70.9308 28.5967 66.9506C24.1356 64.1151 20.5958 60.0996 18.361 55.3384C16.2658 50.8754 15.396 45.9485 15.8261 41.0532ZM4.06744 39.6959L3.37423 33.0822C3.09802 30.4463 4.01441 27.8599 5.8884 25.9859L25.9745 5.89981C27.8484 4.02582 30.4341 3.10961 33.0706 3.38564L39.6844 4.07885C41.1192 4.22924 42.2632 5.13067 42.7449 6.49029C43.2263 7.84992 42.905 9.27052 41.8852 10.2906L10.2792 41.8968C9.25911 42.9168 7.83778 43.2379 6.47907 42.7565C5.11944 42.2748 4.21783 41.1306 4.06744 39.6959ZM71.4866 61.2985C65.174 71.2292 54.4206 76.6644 43.4427 76.664C37.3607 76.6638 31.2094 74.9955 25.7075 71.4987C16.78 65.8254 11.1279 56.2696 10.4074 45.7519C11.1289 45.4458 11.8051 45.014 12.4061 44.4625C12.5386 48.6988 13.5338 52.8813 15.3507 56.7516C17.8544 62.0854 21.8182 66.5825 26.8131 69.7574C31.8632 72.9676 37.5944 74.6226 43.437 74.6224C45.7058 74.6224 47.9927 74.3725 50.2611 73.8671C58.3705 72.0606 65.2909 67.2044 69.748 60.1927C78.9454 45.7181 74.6539 26.4579 60.1813 17.2583C55.4576 14.2566 49.9931 12.5943 44.4437 12.421C44.998 11.8183 45.4316 11.1404 45.7387 10.4162C51.242 10.785 56.5929 12.5365 61.2869 15.5194C68.7631 20.2708 73.9415 27.6494 75.8679 36.296C77.7942 44.9427 76.2382 53.8221 71.4866 61.2985Z" fill="black"/>
<path d="M34.5417 57.5979C37.2523 59.3206 40.3285 60.2089 43.4642 60.2089C44.6825 60.2089 45.9098 60.0747 47.1277 59.8033C51.4804 58.8335 55.1948 56.2268 57.5866 52.4631C59.9787 48.6996 60.762 44.2298 59.7923 39.8771C58.8225 35.5244 56.2157 31.8101 52.452 29.418C44.6826 24.48 34.3449 26.7836 29.4069 34.5528C24.4691 42.3222 26.7725 52.6601 34.5417 57.5979ZM32.2136 36.3368C34.7581 32.3333 39.0926 30.1424 43.5183 30.1424C45.9702 30.1424 48.45 30.8153 50.6682 32.225C53.6822 34.1406 55.7695 37.1152 56.5461 40.6006C57.3226 44.0861 56.6955 47.6655 54.7798 50.6795C52.8644 53.6934 49.8898 55.7808 46.4042 56.5573C42.9191 57.3341 39.3395 56.7068 36.3252 54.7913C30.1038 50.8371 28.2594 42.5583 32.2136 36.3368Z" fill="black"/>
<path d="M64.041 52.3393C64.2202 52.4021 64.4031 52.4317 64.584 52.4317C65.2731 52.4317 65.9181 51.9994 66.1544 51.3121C66.4556 50.4437 65.9957 49.4959 65.1272 49.1966C64.2588 48.8954 63.3128 49.3573 63.0117 50.2257C62.7126 51.0922 63.1726 52.04 64.041 52.3393Z" fill="black"/>
<path d="M61.4546 31.9421C61.7981 31.9421 62.1419 31.8368 62.4394 31.6188C63.1784 31.0738 63.3371 30.0336 62.7941 29.2927C62.249 28.5537 61.2089 28.3948 60.468 28.9398C59.729 29.483 59.5701 30.5232 60.1151 31.2641C60.4403 31.7075 60.9448 31.9421 61.4546 31.9421Z" fill="black"/>
<path d="M65.5414 41.8007C65.6243 41.8007 65.7095 41.7951 65.7945 41.7822C66.7035 41.6418 67.3261 40.7937 67.1855 39.8866C67.047 38.9776 66.1971 38.3549 65.2899 38.4954C64.3828 38.6339 63.7601 39.4838 63.8987 40.391C64.0264 41.2131 64.734 41.8007 65.5414 41.8007Z" fill="black"/>
<path d="M39.1857 63.6965C38.2877 63.5025 37.4028 64.0752 37.2108 64.9731C37.0186 65.871 37.5895 66.7542 38.4873 66.9482C38.6057 66.9722 38.7221 66.9851 38.8383 66.9851C39.6051 66.9851 40.296 66.4512 40.4623 65.6697C40.6545 64.7717 40.0836 63.8886 39.1857 63.6965Z" fill="black"/>
<path d="M49.0555 63.3822C48.1705 63.6298 47.655 64.548 47.9026 65.433C48.1095 66.1665 48.7765 66.6469 49.5026 66.6469C49.6525 66.6469 49.8019 66.6266 49.9534 66.5859C50.8366 66.3383 51.3539 65.4201 51.1043 64.5351C50.8569 63.652 49.9405 63.1346 49.0555 63.3822Z" fill="black"/>
<path d="M57.658 58.5269C56.991 59.157 56.9596 60.2101 57.5896 60.8789C57.9167 61.2244 58.3582 61.3999 58.7998 61.3999C59.2081 61.3999 59.6183 61.2503 59.9398 60.9473C60.6086 60.3172 60.64 59.266 60.01 58.5971C59.3798 57.9283 58.3266 57.8969 57.658 58.5269Z" fill="black"/>
<path d="M30.297 59.3787C29.5896 58.793 28.5418 58.8891 27.9543 59.5967C27.3686 60.3025 27.4665 61.3519 28.1723 61.9376C28.4829 62.1963 28.8598 62.3219 29.2328 62.3219C29.7113 62.3219 30.1843 62.1168 30.5134 61.7214C31.1007 61.0138 31.0028 59.9662 30.297 59.3787Z" fill="black"/>
<path d="M52.4955 24.9362C52.5047 24.9399 52.514 24.9455 52.5214 24.9492C52.5234 24.9492 52.5234 24.9492 52.5234 24.9492C52.7562 25.0637 53.0038 25.1173 53.2477 25.1173C53.8647 25.1173 54.4578 24.7736 54.7459 24.1806C55.1468 23.3547 54.8033 22.3607 53.9774 21.9579C53.9719 21.9561 53.9662 21.9524 53.9606 21.9506C53.9569 21.9487 53.9553 21.9487 53.9532 21.9469C53.1257 21.5459 52.1317 21.8914 51.7308 22.7173C51.3315 23.5413 51.6733 24.5335 52.4955 24.9362Z" fill="black"/>
<path d="M22.2657 50.5324C21.4176 50.8834 21.0167 51.8571 21.3679 52.7051C21.6338 53.3444 22.2527 53.7305 22.9049 53.7305C23.1174 53.7305 23.3335 53.6899 23.5423 53.6031C24.3885 53.2502 24.7913 52.2784 24.4402 51.4303C24.0874 50.5804 23.1137 50.1795 22.2657 50.5324Z" fill="black"/>
<path d="M21.1312 43.1733C21.1811 43.1789 21.231 43.1807 21.2809 43.1807C22.1326 43.1807 22.8587 42.5304 22.9363 41.6657C23.0176 40.7512 22.3414 39.9438 21.4268 39.8606C20.5123 39.7793 19.7051 40.4555 19.6236 41.3701C19.5405 42.2846 20.2167 43.092 21.1312 43.1733Z" fill="black"/>
<path d="M42.7866 22.8778C42.8051 22.8778 42.8235 22.8778 42.842 22.8759C43.7602 22.8464 44.4808 22.0778 44.4494 21.1595C44.4198 20.2431 43.6529 19.5226 42.7348 19.5521C41.8166 19.5817 41.096 20.3503 41.1275 21.2685C41.1552 22.1683 41.8942 22.8778 42.7866 22.8778Z" fill="black"/>
<path d="M37.3646 53.1562C39.2208 54.3359 41.3272 54.9441 43.4743 54.9441C44.3085 54.9441 45.1489 54.8523 45.9829 54.6664C48.9634 54.0024 51.5068 52.2173 53.1448 49.6403C54.7827 47.0631 55.3193 44.0024 54.6552 41.0219C53.991 38.0414 52.2061 35.4978 49.6291 33.86C49.6289 33.86 49.6289 33.86 49.6289 33.86C44.3088 30.4784 37.2297 32.0562 33.8486 37.3761C30.4674 42.6958 32.0447 49.775 37.3646 53.1562ZM36.6553 39.1597C38.1982 36.7322 40.8264 35.4038 43.5098 35.4038C44.9965 35.4038 46.5004 35.8117 47.8451 36.6664C49.6727 37.8278 50.9383 39.6314 51.4092 41.745C51.8802 43.8587 51.4998 46.0288 50.3382 47.8563C49.1768 49.6837 47.3732 50.9495 45.2598 51.4204C43.1465 51.8913 40.976 51.5109 39.1486 50.3495C35.376 47.9518 34.2577 42.9321 36.6553 39.1597Z" fill="black"/>
<path d="M12.4363 33.8885C13.5847 33.8885 14.6644 33.4414 15.4764 32.6292C16.2886 31.817 16.7356 30.7375 16.7356 29.589C16.7356 28.4406 16.2883 27.3609 15.4764 26.5489C14.6642 25.7368 13.5847 25.2896 12.4363 25.2896C11.2876 25.2896 10.2079 25.7368 9.39608 26.5489C8.58407 27.3609 8.13696 28.4406 8.13696 29.589C8.13696 30.7375 8.58407 31.8172 9.39608 32.6292C10.2081 33.4414 11.2876 33.8885 12.4363 33.8885ZM11.7479 28.9004C11.9317 28.7166 12.1761 28.6154 12.4364 28.6154C12.6964 28.6154 12.941 28.7166 13.125 28.9006C13.3091 29.0846 13.4103 29.3291 13.4103 29.5892C13.4103 29.8494 13.3091 30.0938 13.125 30.2778C12.9412 30.4616 12.6966 30.5631 12.4364 30.5631C12.1763 30.5631 11.9319 30.4618 11.7479 30.2778C11.5638 30.0938 11.4626 29.8494 11.4626 29.5892C11.4626 29.3291 11.5637 29.0845 11.7479 28.9004Z" fill="black"/>
<path d="M29.5774 16.7474C30.7258 16.7474 31.8055 16.3003 32.6175 15.4881C33.4297 14.6759 33.8767 13.5964 33.8767 12.4479C33.8767 11.2995 33.4294 10.2197 32.6175 9.40774C31.8054 8.59573 30.7258 8.14844 29.5774 8.14844C28.4287 8.14844 27.349 8.59573 26.5372 9.40774C25.7252 10.2197 25.2781 11.2995 25.2781 12.4479C25.2781 13.5964 25.7252 14.6761 26.5372 15.4881C27.3492 16.3001 28.4289 16.7474 29.5774 16.7474ZM28.889 11.7593C29.0728 11.5755 29.3172 11.4742 29.5776 11.4742C29.8375 11.4742 30.0821 11.5755 30.2661 11.7595C30.4502 11.9435 30.5514 12.188 30.5514 12.4481C30.5514 12.7082 30.4502 12.9527 30.2661 13.1367C30.0823 13.3205 29.8377 13.422 29.5776 13.422C29.3174 13.422 29.073 13.3207 28.889 13.1367C28.705 12.9527 28.6037 12.7082 28.6037 12.4481C28.6037 12.188 28.705 11.9433 28.889 11.7593Z" fill="black"/>
</g>
<defs>
<clipPath id="clip0">
<rect width="80" height="80" fill="white"/>
</clipPath>
</defs>
</svg>
