<svg width="80" height="80" viewBox="0 0 80 80" fill="none" xmlns="http://www.w3.org/2000/svg">
<path d="M52.5999 31.1167H27.2666C25.1666 31.1167 23.4666 32.8167 23.4666 34.9167V67.8334C23.4666 69.9334 25.1666 71.6334 27.2666 71.6334H52.5999C54.6999 71.6334 56.3999 69.9334 56.3999 67.8334V34.9167C56.3999 32.8167 54.6833 31.1167 52.5999 31.1167ZM53.8666 67.8334C53.8666 68.5334 53.2999 69.1 52.5999 69.1H27.2666C26.5666 69.1 25.9999 68.5334 25.9999 67.8334V34.9167C25.9999 34.2167 26.5666 33.65 27.2666 33.65H52.5999C53.2999 33.65 53.8666 34.2167 53.8666 34.9167V67.8334Z" fill="black"/>
<path d="M62.7333 36.8501V74.1668C62.7333 75.5668 61.6 76.7001 60.2 76.7001H19.6666C18.2666 76.7001 17.1333 75.5668 17.1333 74.1668V36.8501H14.6V74.1668C14.6 76.9668 16.8666 79.2334 19.6666 79.2334H60.1833C62.9833 79.2334 65.25 76.9668 65.25 74.1668V36.8501H62.7333Z" fill="black"/>
<path d="M61.7833 21.8L60.35 21.55C60.3 21.55 60.25 21.55 60.2 21.55H56.7833H54.1833H44.9667L59.3333 24.0834H60.2C60.7 24.0834 61.1667 24.2334 61.55 24.4667C62.2667 24.9167 62.7333 25.7 62.7333 26.6167V63.9334H65.2667V26.6C65.2667 24.45 63.9167 22.6167 62.0333 21.8834L61.7833 21.8Z" fill="black"/>
<path d="M49.4166 13.8666L45.6666 11.4666C45.4666 11.3333 45.25 11.2333 45.0333 11.15L43.5 10.8833C42.2833 10.9333 41.1166 11.5333 40.4166 12.6333L40.2499 12.8833L37.2999 17.5L37.0833 17.8166L37.0666 17.8333L36.7166 18.3833L38.8499 19.75L39.4833 18.75L39.7666 18.3166L39.9833 17.9833L42.5333 14C42.7333 13.7 43.0333 13.5 43.3666 13.4333C43.6666 13.3833 43.9666 13.4333 44.25 13.5833L48.8333 14.3833L49.45 14.5L49.7166 14.0833L49.4166 13.8666Z" fill="black"/>
<path d="M59.55 22.4L59.4 21.75L59.3167 21.35L58.0833 16L58.0333 15.7833C57.6833 14.25 56.45 13.15 54.9833 12.8833C54.5 12.8 53.9833 12.8 53.4833 12.9167L49.4167 13.85L48.7667 14L48.85 14.3667L49.4667 14.4833L54.55 15.3833C55.0333 15.4667 55.45 15.8333 55.5667 16.35L56.6 20.8833L56.6833 21.2833L56.95 22.4167L57.0833 23.0167L59.55 22.45V22.4Z" fill="black"/>
<path d="M58.0833 16.0167L40.25 12.8667L40.4167 12.6167C41.1167 11.5167 42.2833 10.9167 43.5 10.8667L54.9833 12.9C56.45 13.15 57.6833 14.2667 58.0333 15.8L58.0833 16.0167Z" fill="black"/>
<path d="M62.0333 21.8333V21.8833L61.5666 24.4667H61.5333L59.3333 24.0667L44.9666 21.5333L34 19.6L24.0667 17.85L24.2333 16.9333H29.3V16.0667L31.9667 16.5333V16.9333H34.2333L34.3166 16.95L36.7333 17.3833L37.0167 17.4333L37.3 17.4833L40 17.95L53.9166 20.4167L56.6 20.8833H56.6333L59.3166 21.3667L60.35 21.55L61.7833 21.8L62.0333 21.8333Z" fill="black"/>
<path d="M31.9666 14.7168V18.5835H29.3V14.9168C29.3 14.2001 28.7166 13.6335 28.0166 13.6335H21.1C20.3833 13.6335 19.8166 14.2001 19.8166 14.9168V18.5835H17.15V14.7168C17.15 12.6501 18.8333 10.9668 20.9 10.9668H28.2333C30.2833 10.9668 31.9666 12.6501 31.9666 14.7168Z" fill="black"/>
<path d="M17.1333 18.5833V36.85H14.6V19.6C14.6 19.3 14.65 19 14.75 18.7167C14.8333 18.6333 14.9666 18.5667 15.1 18.5667H17.1333V18.5833Z" fill="black"/>
<path d="M36.7333 17.3834V19.6H14.6C14.6 19.3 14.65 19 14.75 18.7167C15.1 17.7167 16.0333 16.9833 17.1333 16.9333C17.1833 16.9333 17.2166 16.9333 17.2666 16.9333H34.2166L34.3 16.95L36.7333 17.3834Z" fill="black"/>
<path d="M17.1333 20.6501V19.6001H18.15C17.6 19.6001 17.1333 20.0834 17.1333 20.6501Z" fill="black"/>
</svg>
