<svg width="80" height="80" viewBox="0 0 80 80" fill="none" xmlns="http://www.w3.org/2000/svg">
<path d="M16.5666 11.05C15.2999 9.78335 13.3166 9.51668 11.7666 10.4167C10.2166 11.3167 9.44993 13.1667 9.91659 14.9C10.3833 16.6334 11.9666 17.8334 13.7499 17.8334C15.3666 17.8334 16.8166 16.8667 17.4333 15.3834C18.0499 13.8834 17.7166 12.1834 16.5666 11.05ZM14.2666 15.0834C13.7666 15.2833 13.1999 15.1834 12.8166 14.8C12.5666 14.55 12.4333 14.2167 12.4333 13.8667C12.4333 13.5167 12.5666 13.1667 12.8166 12.9167C13.1833 12.55 13.7666 12.4167 14.2666 12.6167C14.7666 12.8167 15.0833 13.3 15.0833 13.85C15.0833 14.4 14.7499 14.8833 14.2666 15.0834Z" fill="black"/>
<path d="M73.8333 19.2166C76.45 15.5333 76.0166 10.5 72.8166 7.29997C69.6166 4.09997 64.5833 3.6833 60.9 6.2833C48.1 -1.6667 31.9 -1.6667 19.1 6.2833C15.4166 3.66663 10.3833 4.09997 7.1833 7.29997C3.9833 10.5 3.56663 15.5333 6.16663 19.2166C-1.78337 32.0166 -1.78337 48.2166 6.16663 61.0166C3.51663 64.6833 3.9333 69.7333 7.1333 72.9333C10.3333 76.1333 15.3666 76.55 19.05 73.9166C31.8666 81.8833 48.1166 81.8833 60.9333 73.9166C64.6166 76.5333 69.6333 76.1 72.8333 72.9166C76.0166 69.7333 76.4333 64.7 73.8333 61.0166C81.8 48.2166 81.8 32.0166 73.8333 19.2166ZM71.9666 58.9666L68.0833 55.0833C73.0666 45.7333 73.0666 34.5166 68.0833 25.1666L71.9666 21.2833C78.85 32.9 78.85 47.35 71.9666 58.9666ZM40.0166 69.2833C23.9 69.2833 10.85 56.2166 10.85 40.1166C10.85 24.0166 23.9 10.95 40.0166 10.95C56.1333 10.95 69.1833 24 69.1833 40.1166C69.1666 56.2166 56.1 69.2666 40.0166 69.2833ZM61.5833 9.19997C61.65 9.1333 61.7 9.0833 61.7833 9.01663C61.8333 8.9833 61.8666 8.94997 61.9 8.91663C64.5166 6.5833 68.4666 6.71663 70.95 9.1833C73.4333 11.65 73.55 15.6166 71.2333 18.25C71.2 18.2833 71.1666 18.3333 71.1333 18.3666C71.0666 18.45 71.0166 18.5 70.95 18.5666L66.7 22.8166C64.2666 19.0666 61.0666 15.8833 57.3333 13.45L61.5833 9.19997ZM58.85 8.14997L54.9666 12.0333C45.6166 7.04997 34.4 7.04997 25.05 12.0333L21.1666 8.14997C32.7833 1.26663 47.2333 1.26663 58.85 8.14997ZM9.06663 9.1833C11.5333 6.69997 15.5 6.56663 18.1333 8.89997C18.1666 8.9333 18.2166 8.96663 18.25 8.99997C18.3333 9.06663 18.3833 9.11663 18.45 9.1833L22.7 13.4333C18.95 15.8666 15.7666 19.0666 13.3333 22.8L9.0833 18.55C9.01663 18.4833 8.96663 18.4333 8.89997 18.35C8.86663 18.3 8.8333 18.2666 8.79997 18.2333C6.46663 15.6166 6.59997 11.65 9.06663 9.1833ZM8.04997 21.2666L11.9333 25.15C6.94997 34.5 6.94997 45.7166 11.9333 55.0666L8.04997 58.95C1.16663 47.35 1.16663 32.9 8.04997 21.2666ZM18.4333 71.05C18.3666 71.1166 18.3166 71.1666 18.2333 71.2333C18.1833 71.2666 18.15 71.3 18.1166 71.3333C15.5 73.6666 11.55 73.5333 9.06663 71.0666C6.5833 68.6 6.44997 64.6333 8.7833 62C8.81663 61.9666 8.84997 61.9166 8.8833 61.8833C8.94997 61.8 8.99997 61.75 9.06663 61.6833L13.3333 57.4166C15.7666 61.1666 18.9666 64.35 22.7 66.7833L18.4333 71.05ZM21.1666 72.0833L25.05 68.2C34.4 73.1833 45.6166 73.1833 54.9666 68.2L58.85 72.0833C47.2333 78.9666 32.7833 78.9666 21.1666 72.0833ZM70.95 71.0666C68.4833 73.5333 64.5166 73.6666 61.8833 71.35C61.85 71.3166 61.8 71.2833 61.7666 71.25C61.6833 71.1833 61.6333 71.1333 61.5666 71.0666L57.3166 66.8166C61.0666 64.3833 64.25 61.1833 66.6833 57.45L70.9333 61.7C71 61.7666 71.05 61.8166 71.1166 61.9C71.15 61.95 71.1833 61.9833 71.2166 62.0166C73.55 64.6333 73.4166 68.5833 70.95 71.0666Z" fill="black"/>
<path d="M16.5667 63.5499C15.0167 62.0166 12.5 62.0166 10.9333 63.5499C9.38333 65.0999 9.38333 67.6166 10.9333 69.1832C12.4833 70.7499 15 70.7332 16.5667 69.1832C18.1333 67.6332 18.1167 65.0999 16.5667 63.5499ZM14.7 67.3166C14.3333 67.6832 13.75 67.8166 13.25 67.6166C12.75 67.4166 12.4333 66.9332 12.4333 66.3832C12.4333 65.8332 12.7667 65.3499 13.25 65.1499C13.75 64.9499 14.3167 65.0499 14.7 65.4499C15.2 65.9666 15.2 66.7999 14.7 67.3166Z" fill="black"/>
<path d="M68.2666 10.4167C66.7166 9.51668 64.7333 9.78335 63.4666 11.05C62.3333 12.1834 61.9833 13.9 62.5999 15.3834C63.2166 16.8834 64.6666 17.8334 66.2833 17.8334C68.0833 17.8334 69.65 16.6167 70.1166 14.8834C70.5666 13.15 69.8166 11.3167 68.2666 10.4167ZM66.7666 15.0834C66.2666 15.2833 65.6999 15.1833 65.3166 14.7833C64.7999 14.2667 64.7999 13.4333 65.3166 12.9167C65.6833 12.55 66.2666 12.4167 66.7666 12.6167C67.2666 12.8167 67.5833 13.3 67.5833 13.85C67.5833 14.4 67.2666 14.8833 66.7666 15.0834Z" fill="black"/>
<path d="M49.3833 30.7499C46.9166 28.2499 43.5333 26.8499 40.0166 26.8666C33.6999 26.8666 28.2333 31.3499 27.0166 37.5499C25.7999 43.7499 29.0999 49.9666 34.9499 52.3833C40.7999 54.7999 47.5333 52.7499 51.0499 47.4999C54.5333 42.2333 53.8499 35.2333 49.3833 30.7499ZM47.5166 47.6333C43.9499 51.1999 38.3333 51.7666 34.1166 48.9499C29.8999 46.1333 28.2666 40.7499 30.2166 36.0666C32.1666 31.3833 37.1166 28.7333 42.0833 29.7333C47.0333 30.7333 50.6166 35.0833 50.6166 40.1499C50.6166 42.9333 49.4999 45.6333 47.5166 47.6333Z" fill="black"/>
<path d="M45.6333 34.4834C44.1333 33.0001 42.1167 32.1667 40 32.1667C36.2167 32.1667 32.9333 34.8501 32.2 38.5667C31.4666 42.2834 33.4666 46.0334 36.95 47.4667C40.45 48.9167 44.5 47.7001 46.6167 44.5334C48.7333 41.3834 48.3167 37.1667 45.6333 34.4834ZM43.75 43.8668C41.65 45.8668 38.35 45.8668 36.25 43.8668C34.7333 42.3501 34.2833 40.0834 35.1 38.0834C35.9167 36.1001 37.85 34.8001 40 34.8001C42.15 34.8001 44.0833 36.0834 44.9 38.0834C45.7333 40.0667 45.2833 42.3501 43.75 43.8668Z" fill="black"/>
<path d="M40.0167 61.3334C28.3 61.3167 18.8167 51.8167 18.8 40.1167C18.8 39.3834 18.2167 38.8 17.4833 38.8C16.75 38.8 16.1667 39.3834 16.1667 40.1167C16.1833 53.3 26.85 63.9667 40.0333 63.9834C40.7667 63.9834 41.35 63.4 41.35 62.6667C41.35 61.9334 40.7333 61.3334 40.0167 61.3334Z" fill="black"/>
<path d="M40.0166 16.25C39.2833 16.25 38.6999 16.8333 38.6999 17.5667C38.6999 18.3 39.2833 18.8833 40.0166 18.8833C51.7333 18.9 61.2166 28.4 61.2333 40.1C61.2333 40.8333 61.8166 41.4167 62.5499 41.4167C63.2833 41.4167 63.8666 40.8333 63.8666 40.1C63.8666 26.95 53.1833 16.2667 40.0166 16.25Z" fill="black"/>
<path d="M68.2666 62.9167C66.7166 62.0167 64.7333 62.2833 63.4666 63.55C62.3333 64.6833 61.9833 66.4 62.5999 67.8833C63.2166 69.3833 64.6666 70.35 66.2833 70.3333C68.0833 70.3333 69.65 69.1167 70.1166 67.3833C70.5833 65.65 69.8166 63.8167 68.2666 62.9167ZM66.7666 67.6C66.2666 67.8 65.6999 67.7 65.3166 67.3C64.7999 66.8 64.7999 65.9667 65.3166 65.4333C65.6833 65.0667 66.2666 64.9333 66.7666 65.1333C67.2666 65.3333 67.5833 65.8167 67.5833 66.3667C67.5833 66.9167 67.2666 67.4 66.7666 67.6Z" fill="black"/>
</svg>
