<svg width="24" height="24" viewBox="0 0 24 24" fill="none" xmlns="http://www.w3.org/2000/svg">
<path d="M17.0127 0H3.23145C2.45604 0 1.8252 0.630844 1.8252 1.40625V6.1875C1.8252 6.44639 2.0351 6.65625 2.29395 6.65625C2.55279 6.65625 2.7627 6.44639 2.7627 6.1875V1.40625C2.7627 1.14778 2.97298 0.9375 3.23145 0.9375H17.0127C17.2712 0.9375 17.4814 1.14778 17.4814 1.40625V18.8438C17.4814 19.1022 17.2712 19.3125 17.0127 19.3125H3.23145C2.97298 19.3125 2.7627 19.1022 2.7627 18.8438V10.1406C2.7627 9.88172 2.55279 9.67186 2.29395 9.67186C2.0351 9.67186 1.8252 9.88172 1.8252 10.1406V18.8438C1.8252 19.6192 2.45604 20.25 3.23145 20.25H17.0127C17.7881 20.25 18.4189 19.6192 18.4189 18.8438V1.40625C18.4189 0.630844 17.7881 0 17.0127 0Z" fill="#000000"/>
<path d="M2.6253 7.95523C2.53816 7.86805 2.41723 7.81836 2.29395 7.81836C2.17066 7.81836 2.04973 7.86805 1.96254 7.95523C1.8753 8.04289 1.8252 8.16383 1.8252 8.28664C1.8252 8.41039 1.87535 8.53086 1.96254 8.61852C2.04973 8.7057 2.17066 8.75586 2.29395 8.75586C2.41718 8.75586 2.53812 8.7057 2.6253 8.61852C2.71254 8.53133 2.7627 8.41039 2.7627 8.28664C2.7627 8.16336 2.71249 8.04289 2.6253 7.95523Z" fill="#000000"/>
<path d="M4.50328 21.3268C4.41609 21.2396 4.29567 21.1895 4.17188 21.1895C4.04859 21.1895 3.92766 21.2396 3.84052 21.3268C3.75328 21.414 3.70312 21.5349 3.70312 21.6582C3.70312 21.782 3.75333 21.9024 3.84052 21.9896C3.92766 22.0773 4.04859 22.127 4.17188 22.127C4.29567 22.127 4.41609 22.0773 4.50328 21.9896C4.59052 21.9024 4.64062 21.782 4.64062 21.6582C4.64062 21.5349 4.59047 21.414 4.50328 21.3268Z" fill="#000000"/>
<path d="M19.8281 1.87891C19.5693 1.87891 19.3594 2.08877 19.3594 2.34766V20.7227C19.3594 20.9811 19.1491 21.1914 18.8906 21.1914H6.04688C5.78803 21.1914 5.57812 21.4013 5.57812 21.6602C5.57812 21.919 5.78803 22.1289 6.04688 22.1289H18.8906C19.666 22.1289 20.2969 21.4981 20.2969 20.7227V2.34766C20.2969 2.08877 20.087 1.87891 19.8281 1.87891Z" fill="#000000"/>
<path d="M21.7061 3.75C21.4472 3.75 21.2373 3.95986 21.2373 4.21875V22.5938C21.2373 22.8522 21.027 23.0625 20.7686 23.0625H6.0498C5.79096 23.0625 5.58105 23.2724 5.58105 23.5312C5.58105 23.7901 5.79096 24 6.0498 24H20.7686C21.544 24 22.1748 23.3692 22.1748 22.5938V4.21875C22.1748 3.95986 21.9649 3.75 21.7061 3.75Z" fill="#000000"/>
<path d="M9.41895 3.46875H4.91895C4.6601 3.46875 4.4502 3.67861 4.4502 3.9375V8.4375C4.4502 8.69639 4.6601 8.90625 4.91895 8.90625H9.41895C9.67779 8.90625 9.8877 8.69639 9.8877 8.4375V3.9375C9.8877 3.67861 9.67779 3.46875 9.41895 3.46875ZM8.9502 7.96875H5.3877V4.40625H8.9502V7.96875Z" fill="#000000"/>
<path d="M7.91071 11.0338C7.72762 10.8508 7.4309 10.8507 7.24776 11.0338L6.00168 12.2798L5.42231 11.7004C5.23926 11.5174 4.94254 11.5174 4.75936 11.7004C4.57631 11.8835 4.57631 12.1803 4.75936 12.3633L5.67023 13.2742C5.75817 13.3621 5.87737 13.4115 6.00168 13.4115C6.12604 13.4115 6.2452 13.3621 6.33318 13.2742L7.91071 11.6967C8.09376 11.5136 8.09376 11.2168 7.91071 11.0338Z" fill="#000000"/>
<path d="M15.5908 11.6719H10.1221C9.86323 11.6719 9.65332 11.8817 9.65332 12.1406C9.65332 12.3995 9.86323 12.6094 10.1221 12.6094H15.5908C15.8497 12.6094 16.0596 12.3995 16.0596 12.1406C16.0596 11.8817 15.8497 11.6719 15.5908 11.6719Z" fill="#000000"/>
<path d="M15.3252 3.46875H12.0439C11.7851 3.46875 11.5752 3.67861 11.5752 3.9375C11.5752 4.19639 11.7851 4.40625 12.0439 4.40625H15.3252C15.584 4.40625 15.794 4.19639 15.794 3.9375C15.794 3.67861 15.584 3.46875 15.3252 3.46875Z" fill="#000000"/>
<path d="M15.3252 5.71875H12.0439C11.7851 5.71875 11.5752 5.92861 11.5752 6.1875C11.5752 6.44639 11.7851 6.65625 12.0439 6.65625H15.3252C15.584 6.65625 15.794 6.44639 15.794 6.1875C15.794 5.92861 15.584 5.71875 15.3252 5.71875Z" fill="#000000"/>
<path d="M15.3252 7.96875H12.0439C11.7851 7.96875 11.5752 8.17861 11.5752 8.4375C11.5752 8.69639 11.7851 8.90625 12.0439 8.90625H15.3252C15.584 8.90625 15.794 8.69639 15.794 8.4375C15.794 8.17861 15.584 7.96875 15.3252 7.96875Z" fill="#000000"/>
<path d="M7.91071 14.6138C7.72762 14.4308 7.4309 14.4308 7.24776 14.6138L6.00168 15.8599L5.42231 15.2805C5.23926 15.0974 4.94254 15.0975 4.75936 15.2805C4.57631 15.4635 4.57631 15.7603 4.75936 15.9434L5.67023 16.8543C5.75817 16.9422 5.87737 16.9916 6.00168 16.9916C6.12604 16.9916 6.2452 16.9422 6.33318 16.8543L7.91071 15.2767C8.09376 15.0937 8.09376 14.7969 7.91071 14.6138Z" fill="#000000"/>
<path d="M15.5908 15.2344H10.1221C9.86323 15.2344 9.65332 15.4442 9.65332 15.7031C9.65332 15.962 9.86323 16.1719 10.1221 16.1719H15.5908C15.8497 16.1719 16.0596 15.962 16.0596 15.7031C16.0596 15.4442 15.8497 15.2344 15.5908 15.2344Z" fill="#000000"/>
</svg>
